%TF.GenerationSoftware,KiCad,Pcbnew,(5.1.8-0-10_14)*%
%TF.CreationDate,2021-01-24T23:40:28+01:00*%
%TF.ProjectId,clapruptor,636c6170-7275-4707-946f-722e6b696361,rev?*%
%TF.SameCoordinates,Original*%
%TF.FileFunction,Copper,L1,Top*%
%TF.FilePolarity,Positive*%
%FSLAX46Y46*%
G04 Gerber Fmt 4.6, Leading zero omitted, Abs format (unit mm)*
G04 Created by KiCad (PCBNEW (5.1.8-0-10_14)) date 2021-01-24 23:40:28*
%MOMM*%
%LPD*%
G01*
G04 APERTURE LIST*
%TA.AperFunction,ComponentPad*%
%ADD10C,1.550000*%
%TD*%
%TA.AperFunction,ComponentPad*%
%ADD11R,1.550000X1.550000*%
%TD*%
%TA.AperFunction,ComponentPad*%
%ADD12R,1.500000X1.500000*%
%TD*%
%TA.AperFunction,ComponentPad*%
%ADD13O,1.500000X1.500000*%
%TD*%
%TA.AperFunction,SMDPad,CuDef*%
%ADD14R,0.600000X1.160000*%
%TD*%
%TA.AperFunction,SMDPad,CuDef*%
%ADD15R,0.300000X1.160000*%
%TD*%
%TA.AperFunction,ComponentPad*%
%ADD16O,0.900000X1.700000*%
%TD*%
%TA.AperFunction,ComponentPad*%
%ADD17O,0.900000X2.000000*%
%TD*%
%TA.AperFunction,ConnectorPad*%
%ADD18C,0.787400*%
%TD*%
%TA.AperFunction,ComponentPad*%
%ADD19C,1.600000*%
%TD*%
%TA.AperFunction,ComponentPad*%
%ADD20R,1.600000X1.500000*%
%TD*%
%TA.AperFunction,ComponentPad*%
%ADD21C,3.000000*%
%TD*%
%TA.AperFunction,ViaPad*%
%ADD22C,0.800000*%
%TD*%
%TA.AperFunction,ViaPad*%
%ADD23C,0.600000*%
%TD*%
%TA.AperFunction,Conductor*%
%ADD24C,0.203200*%
%TD*%
%TA.AperFunction,Conductor*%
%ADD25C,0.508000*%
%TD*%
%TA.AperFunction,Conductor*%
%ADD26C,0.200000*%
%TD*%
%TA.AperFunction,Conductor*%
%ADD27C,0.100000*%
%TD*%
G04 APERTURE END LIST*
D10*
%TO.P,RV1,2*%
%TO.N,Vref*%
X165063800Y-75010000D03*
D11*
%TO.P,RV1,1*%
%TO.N,vCPU*%
X167563800Y-80010000D03*
D10*
%TO.P,RV1,3*%
%TO.N,GND*%
X162563800Y-80010000D03*
%TD*%
D12*
%TO.P,MK1,1*%
%TO.N,GND*%
X161442400Y-89128600D03*
D13*
%TO.P,MK1,2*%
%TO.N,Net-(C3-Pad2)*%
X163982400Y-89128600D03*
%TD*%
D14*
%TO.P,J4,A12*%
%TO.N,GND*%
X153963700Y-90385700D03*
%TO.P,J4,A9*%
%TO.N,VCC*%
X153163700Y-90385700D03*
%TO.P,J4,B1*%
%TO.N,GND*%
X153963700Y-90385700D03*
%TO.P,J4,B4*%
%TO.N,VCC*%
X153163700Y-90385700D03*
%TO.P,J4,B12*%
%TO.N,GND*%
X147563700Y-90385700D03*
%TO.P,J4,A1*%
X147563700Y-90385700D03*
%TO.P,J4,B9*%
%TO.N,VCC*%
X148363700Y-90385700D03*
%TO.P,J4,A4*%
X148363700Y-90385700D03*
D15*
%TO.P,J4,B5*%
%TO.N,Net-(J4-PadB5)*%
X152513700Y-90385700D03*
%TO.P,J4,B6*%
%TO.N,Net-(J4-PadB6)*%
X151513700Y-90385700D03*
%TO.P,J4,A8*%
%TO.N,Net-(J4-PadA8)*%
X152013700Y-90385700D03*
%TO.P,J4,A5*%
%TO.N,Net-(J4-PadA5)*%
X149513700Y-90385700D03*
%TO.P,J4,B8*%
%TO.N,Net-(J4-PadB8)*%
X149013700Y-90385700D03*
%TO.P,J4,A7*%
%TO.N,Net-(J4-PadA7)*%
X151013700Y-90385700D03*
%TO.P,J4,A6*%
%TO.N,Net-(J4-PadA6)*%
X150513700Y-90385700D03*
%TO.P,J4,B7*%
%TO.N,Net-(J4-PadB7)*%
X150013700Y-90385700D03*
D16*
%TO.P,J4,S1*%
%TO.N,GND*%
X155083700Y-95135700D03*
X146443700Y-95135700D03*
D17*
X155083700Y-90965700D03*
X146443700Y-90965700D03*
%TD*%
D18*
%TO.P,J3,6*%
%TO.N,GND*%
X165633400Y-83235800D03*
%TO.P,J3,5*%
%TO.N,nReset*%
X165633400Y-84505800D03*
%TO.P,J3,4*%
%TO.N,Net-(J3-Pad4)*%
X164363400Y-83235800D03*
%TO.P,J3,3*%
%TO.N,tpiclk*%
X164363400Y-84505800D03*
%TO.P,J3,2*%
%TO.N,vCPU*%
X163093400Y-83235800D03*
%TO.P,J3,1*%
%TO.N,tpidata*%
X163093400Y-84505800D03*
%TD*%
D19*
%TO.P,J2,4*%
%TO.N,Vswitch*%
X149188000Y-83304200D03*
%TO.P,J2,3*%
%TO.N,Net-(J2-Pad3)*%
X151688000Y-83304200D03*
%TO.P,J2,2*%
%TO.N,Net-(J2-Pad2)*%
X153688000Y-83304200D03*
D20*
%TO.P,J2,1*%
%TO.N,VCC*%
X156188000Y-83304200D03*
D21*
%TO.P,J2,5*%
%TO.N,Vswitch*%
X146118000Y-80594200D03*
X159258000Y-80594200D03*
%TD*%
D22*
%TO.N,GND*%
X154432000Y-78994000D03*
X152654000Y-80772000D03*
X157480000Y-81788000D03*
X158750000Y-77978000D03*
X162687000Y-77266800D03*
X152628600Y-86106000D03*
X163525200Y-94132400D03*
X147548600Y-85445600D03*
X161950400Y-94996000D03*
X158064200Y-86182200D03*
D23*
%TO.N,Net-(C3-Pad2)*%
X168249600Y-94767400D03*
%TO.N,VCC*%
X167445841Y-76336041D03*
D22*
X149171699Y-88770499D03*
D23*
%TO.N,Net-(R7-Pad1)*%
X157661459Y-91664941D03*
X159769659Y-93773141D03*
%TO.N,nReset*%
X167563800Y-83896200D03*
%TO.N,tpiclk*%
X164947600Y-83921600D03*
X165887400Y-86283800D03*
%TO.N,tpidata*%
X159994600Y-83381001D03*
%TO.N,Net-(J4-PadB5)*%
X152527000Y-91490800D03*
%TO.N,Net-(J4-PadA5)*%
X149504400Y-91516200D03*
%TO.N,vCPU*%
X161925000Y-90754200D03*
X167360600Y-96469200D03*
X167259000Y-77622400D03*
X153441400Y-86918800D03*
X163169600Y-95072200D03*
%TO.N,1.1v*%
X156235400Y-89458800D03*
X160782000Y-94056200D03*
%TD*%
D24*
%TO.N,Net-(C3-Pad2)*%
X163982400Y-90500200D02*
X168249600Y-94767400D01*
X163982400Y-89128600D02*
X163982400Y-90500200D01*
%TO.N,VCC*%
X156210000Y-79273400D02*
X156210000Y-83282200D01*
X156210000Y-83282200D02*
X156188000Y-83304200D01*
X159147359Y-76336041D02*
X156210000Y-79273400D01*
X167445841Y-76336041D02*
X159147359Y-76336041D01*
D25*
X150477298Y-87464900D02*
X149171699Y-88770499D01*
X148363700Y-89578498D02*
X148363700Y-90385700D01*
X149171699Y-88770499D02*
X148363700Y-89578498D01*
X150733799Y-87208399D02*
X150477298Y-87464900D01*
X153163700Y-89638300D02*
X150733799Y-87208399D01*
X153163700Y-90385700D02*
X153163700Y-89638300D01*
X152577800Y-84785200D02*
X150733799Y-86629201D01*
X150733799Y-86629201D02*
X150733799Y-87208399D01*
X154707000Y-84785200D02*
X152577800Y-84785200D01*
X156188000Y-83304200D02*
X154707000Y-84785200D01*
D24*
%TO.N,Net-(R7-Pad1)*%
X159769659Y-93773141D02*
X157661459Y-91664941D01*
%TO.N,nReset*%
X165633400Y-84505800D02*
X166243000Y-83896200D01*
X166243000Y-83896200D02*
X167563800Y-83896200D01*
%TO.N,tpiclk*%
X164363400Y-84505800D02*
X164947600Y-83921600D01*
X164363400Y-84505800D02*
X165887400Y-86029800D01*
X165887400Y-86029800D02*
X165887400Y-86283800D01*
%TO.N,tpidata*%
X159994600Y-84074000D02*
X159994600Y-83381001D01*
X160807399Y-84886799D02*
X159994600Y-84074000D01*
X162712401Y-84886799D02*
X160807399Y-84886799D01*
X163093400Y-84505800D02*
X162712401Y-84886799D01*
%TO.N,Net-(J4-PadB5)*%
X152527000Y-90399000D02*
X152513700Y-90385700D01*
X152527000Y-91490800D02*
X152527000Y-90399000D01*
%TO.N,Net-(J4-PadA5)*%
X149513700Y-91506900D02*
X149504400Y-91516200D01*
X149513700Y-90385700D02*
X149513700Y-91506900D01*
%TO.N,vCPU*%
X154711400Y-87096600D02*
X158369000Y-90754200D01*
X158369000Y-90754200D02*
X161925000Y-90754200D01*
X167563800Y-77927200D02*
X167563800Y-80010000D01*
X167259000Y-77622400D02*
X167563800Y-77927200D01*
X153619200Y-87096600D02*
X153441400Y-86918800D01*
X154711400Y-87096600D02*
X153619200Y-87096600D01*
X161925000Y-93827600D02*
X163169600Y-95072200D01*
X161925000Y-90754200D02*
X161925000Y-93827600D01*
X164566600Y-96469200D02*
X163169600Y-95072200D01*
X167360600Y-96469200D02*
X164566600Y-96469200D01*
X158978599Y-82829401D02*
X154711400Y-87096600D01*
X162687001Y-82829401D02*
X158978599Y-82829401D01*
X163093400Y-83235800D02*
X162687001Y-82829401D01*
X163093400Y-82588100D02*
X163093400Y-83235800D01*
X165671500Y-80010000D02*
X163093400Y-82588100D01*
X167563800Y-80010000D02*
X165671500Y-80010000D01*
%TO.N,1.1v*%
X160782000Y-94005400D02*
X160782000Y-94056200D01*
X156235400Y-89458800D02*
X160782000Y-94005400D01*
%TD*%
D26*
%TO.N,GND*%
X169702601Y-96906200D02*
X167772128Y-96906200D01*
X167826650Y-96851678D01*
X167892313Y-96753407D01*
X167937542Y-96644214D01*
X167960600Y-96528295D01*
X167960600Y-96410105D01*
X167937542Y-96294186D01*
X167892313Y-96184993D01*
X167826650Y-96086722D01*
X167743078Y-96003150D01*
X167644807Y-95937487D01*
X167535614Y-95892258D01*
X167419695Y-95869200D01*
X167301505Y-95869200D01*
X167185586Y-95892258D01*
X167076393Y-95937487D01*
X166978122Y-96003150D01*
X166913672Y-96067600D01*
X164732948Y-96067600D01*
X163769600Y-95104253D01*
X163769600Y-95013105D01*
X163746542Y-94897186D01*
X163701313Y-94787993D01*
X163635650Y-94689722D01*
X163552078Y-94606150D01*
X163453807Y-94540487D01*
X163344614Y-94495258D01*
X163228695Y-94472200D01*
X163137548Y-94472200D01*
X162326600Y-93661253D01*
X162326600Y-91201128D01*
X162391050Y-91136678D01*
X162456713Y-91038407D01*
X162501942Y-90929214D01*
X162525000Y-90813295D01*
X162525000Y-90695105D01*
X162501942Y-90579186D01*
X162456713Y-90469993D01*
X162391050Y-90371722D01*
X162307478Y-90288150D01*
X162209207Y-90222487D01*
X162106276Y-90179852D01*
X162192400Y-90180052D01*
X162251210Y-90174260D01*
X162307761Y-90157105D01*
X162359878Y-90129248D01*
X162405559Y-90091759D01*
X162443048Y-90046078D01*
X162470905Y-89993961D01*
X162488060Y-89937410D01*
X162493852Y-89878600D01*
X162492400Y-89253600D01*
X162417400Y-89178600D01*
X161492400Y-89178600D01*
X161492400Y-90103600D01*
X161567400Y-90178600D01*
X161745746Y-90179014D01*
X161640793Y-90222487D01*
X161542522Y-90288150D01*
X161478072Y-90352600D01*
X158535348Y-90352600D01*
X158061348Y-89878600D01*
X160390948Y-89878600D01*
X160396740Y-89937410D01*
X160413895Y-89993961D01*
X160441752Y-90046078D01*
X160479241Y-90091759D01*
X160524922Y-90129248D01*
X160577039Y-90157105D01*
X160633590Y-90174260D01*
X160692400Y-90180052D01*
X161317400Y-90178600D01*
X161392400Y-90103600D01*
X161392400Y-89178600D01*
X160467400Y-89178600D01*
X160392400Y-89253600D01*
X160390948Y-89878600D01*
X158061348Y-89878600D01*
X156561348Y-88378600D01*
X160390948Y-88378600D01*
X160392400Y-89003600D01*
X160467400Y-89078600D01*
X161392400Y-89078600D01*
X161392400Y-88153600D01*
X161492400Y-88153600D01*
X161492400Y-89078600D01*
X162417400Y-89078600D01*
X162470816Y-89025184D01*
X162932400Y-89025184D01*
X162932400Y-89232016D01*
X162972750Y-89434874D01*
X163051902Y-89625962D01*
X163166811Y-89797936D01*
X163313064Y-89944189D01*
X163485038Y-90059098D01*
X163580801Y-90098765D01*
X163580801Y-90480465D01*
X163578857Y-90500200D01*
X163586612Y-90578927D01*
X163609576Y-90654629D01*
X163646867Y-90724396D01*
X163697053Y-90785548D01*
X163712377Y-90798124D01*
X167649600Y-94735349D01*
X167649600Y-94826495D01*
X167672658Y-94942414D01*
X167717887Y-95051607D01*
X167783550Y-95149878D01*
X167867122Y-95233450D01*
X167965393Y-95299113D01*
X168074586Y-95344342D01*
X168190505Y-95367400D01*
X168308695Y-95367400D01*
X168424614Y-95344342D01*
X168533807Y-95299113D01*
X168632078Y-95233450D01*
X168715650Y-95149878D01*
X168781313Y-95051607D01*
X168826542Y-94942414D01*
X168849600Y-94826495D01*
X168849600Y-94708305D01*
X168826542Y-94592386D01*
X168781313Y-94483193D01*
X168715650Y-94384922D01*
X168632078Y-94301350D01*
X168533807Y-94235687D01*
X168424614Y-94190458D01*
X168308695Y-94167400D01*
X168217549Y-94167400D01*
X164384000Y-90333853D01*
X164384000Y-90098764D01*
X164479762Y-90059098D01*
X164651736Y-89944189D01*
X164797989Y-89797936D01*
X164912898Y-89625962D01*
X164992050Y-89434874D01*
X165032400Y-89232016D01*
X165032400Y-89025184D01*
X164992050Y-88822326D01*
X164912898Y-88631238D01*
X164797989Y-88459264D01*
X164651736Y-88313011D01*
X164479762Y-88198102D01*
X164288674Y-88118950D01*
X164085816Y-88078600D01*
X163878984Y-88078600D01*
X163676126Y-88118950D01*
X163485038Y-88198102D01*
X163313064Y-88313011D01*
X163166811Y-88459264D01*
X163051902Y-88631238D01*
X162972750Y-88822326D01*
X162932400Y-89025184D01*
X162470816Y-89025184D01*
X162492400Y-89003600D01*
X162493852Y-88378600D01*
X162488060Y-88319790D01*
X162470905Y-88263239D01*
X162443048Y-88211122D01*
X162405559Y-88165441D01*
X162359878Y-88127952D01*
X162307761Y-88100095D01*
X162251210Y-88082940D01*
X162192400Y-88077148D01*
X161567400Y-88078600D01*
X161492400Y-88153600D01*
X161392400Y-88153600D01*
X161317400Y-88078600D01*
X160692400Y-88077148D01*
X160633590Y-88082940D01*
X160577039Y-88100095D01*
X160524922Y-88127952D01*
X160479241Y-88165441D01*
X160441752Y-88211122D01*
X160413895Y-88263239D01*
X160396740Y-88319790D01*
X160390948Y-88378600D01*
X156561348Y-88378600D01*
X155279347Y-87096600D01*
X159144947Y-83231001D01*
X159412682Y-83231001D01*
X159394600Y-83321906D01*
X159394600Y-83440096D01*
X159417658Y-83556015D01*
X159462887Y-83665208D01*
X159528550Y-83763479D01*
X159593000Y-83827929D01*
X159593000Y-84054275D01*
X159591057Y-84074000D01*
X159593000Y-84093725D01*
X159593000Y-84093726D01*
X159598811Y-84152726D01*
X159621775Y-84228428D01*
X159659066Y-84298195D01*
X159709252Y-84359348D01*
X159724582Y-84371929D01*
X160509475Y-85156823D01*
X160522051Y-85172147D01*
X160583203Y-85222333D01*
X160652970Y-85259624D01*
X160728672Y-85282588D01*
X160787672Y-85288399D01*
X160787680Y-85288399D01*
X160807398Y-85290341D01*
X160827116Y-85288399D01*
X162692676Y-85288399D01*
X162712401Y-85290342D01*
X162732126Y-85288399D01*
X162732128Y-85288399D01*
X162791128Y-85282588D01*
X162866830Y-85259624D01*
X162936597Y-85222333D01*
X162976253Y-85189789D01*
X163025076Y-85199500D01*
X163161724Y-85199500D01*
X163295745Y-85172842D01*
X163421990Y-85120549D01*
X163535608Y-85044632D01*
X163632232Y-84948008D01*
X163708149Y-84834390D01*
X163728400Y-84785500D01*
X163748651Y-84834390D01*
X163824568Y-84948008D01*
X163921192Y-85044632D01*
X164034810Y-85120549D01*
X164161055Y-85172842D01*
X164295076Y-85199500D01*
X164431724Y-85199500D01*
X164479625Y-85189972D01*
X165336227Y-86046575D01*
X165310458Y-86108786D01*
X165287400Y-86224705D01*
X165287400Y-86342895D01*
X165310458Y-86458814D01*
X165355687Y-86568007D01*
X165421350Y-86666278D01*
X165504922Y-86749850D01*
X165603193Y-86815513D01*
X165712386Y-86860742D01*
X165828305Y-86883800D01*
X165946495Y-86883800D01*
X166062414Y-86860742D01*
X166171607Y-86815513D01*
X166269878Y-86749850D01*
X166353450Y-86666278D01*
X166419113Y-86568007D01*
X166464342Y-86458814D01*
X166487400Y-86342895D01*
X166487400Y-86224705D01*
X166464342Y-86108786D01*
X166419113Y-85999593D01*
X166353450Y-85901322D01*
X166269878Y-85817750D01*
X166188006Y-85763045D01*
X166185322Y-85759774D01*
X166172748Y-85744452D01*
X166157425Y-85731877D01*
X165625048Y-85199500D01*
X165701724Y-85199500D01*
X165835745Y-85172842D01*
X165961990Y-85120549D01*
X166075608Y-85044632D01*
X166115899Y-85004341D01*
X166138663Y-85118780D01*
X166198614Y-85263516D01*
X166285650Y-85393774D01*
X166396426Y-85504550D01*
X166526684Y-85591586D01*
X166671420Y-85651537D01*
X166825070Y-85682100D01*
X166981730Y-85682100D01*
X167135380Y-85651537D01*
X167280116Y-85591586D01*
X167410374Y-85504550D01*
X167521150Y-85393774D01*
X167608186Y-85263516D01*
X167668137Y-85118780D01*
X167698700Y-84965130D01*
X167698700Y-84808470D01*
X167668137Y-84654820D01*
X167608186Y-84510084D01*
X167598909Y-84496200D01*
X167622895Y-84496200D01*
X167738814Y-84473142D01*
X167848007Y-84427913D01*
X167946278Y-84362250D01*
X168029850Y-84278678D01*
X168095513Y-84180407D01*
X168140742Y-84071214D01*
X168163800Y-83955295D01*
X168163800Y-83837105D01*
X168140742Y-83721186D01*
X168095513Y-83611993D01*
X168029850Y-83513722D01*
X167946278Y-83430150D01*
X167848007Y-83364487D01*
X167738814Y-83319258D01*
X167622895Y-83296200D01*
X167564965Y-83296200D01*
X167608186Y-83231516D01*
X167668137Y-83086780D01*
X167698700Y-82933130D01*
X167698700Y-82776470D01*
X167668137Y-82622820D01*
X167608186Y-82478084D01*
X167521150Y-82347826D01*
X167410374Y-82237050D01*
X167280116Y-82150014D01*
X167135380Y-82090063D01*
X166981730Y-82059500D01*
X166825070Y-82059500D01*
X166671420Y-82090063D01*
X166526684Y-82150014D01*
X166396426Y-82237050D01*
X166285650Y-82347826D01*
X166198614Y-82478084D01*
X166138663Y-82622820D01*
X166116574Y-82733871D01*
X166090595Y-82707892D01*
X166036482Y-82762005D01*
X166001613Y-82643933D01*
X165879071Y-82583471D01*
X165747087Y-82548076D01*
X165610734Y-82539112D01*
X165475253Y-82556920D01*
X165345849Y-82600818D01*
X165265187Y-82643933D01*
X165230318Y-82762007D01*
X165633400Y-83165089D01*
X165647542Y-83150947D01*
X165718253Y-83221658D01*
X165704111Y-83235800D01*
X165718253Y-83249942D01*
X165647542Y-83320653D01*
X165633400Y-83306511D01*
X165619258Y-83320653D01*
X165548547Y-83249942D01*
X165562689Y-83235800D01*
X165159607Y-82832718D01*
X165041533Y-82867587D01*
X164998154Y-82955506D01*
X164978149Y-82907210D01*
X164902232Y-82793592D01*
X164805608Y-82696968D01*
X164691990Y-82621051D01*
X164565745Y-82568758D01*
X164431724Y-82542100D01*
X164295076Y-82542100D01*
X164161055Y-82568758D01*
X164034810Y-82621051D01*
X163921192Y-82696968D01*
X163824568Y-82793592D01*
X163748651Y-82907210D01*
X163728400Y-82956100D01*
X163708149Y-82907210D01*
X163632232Y-82793592D01*
X163544044Y-82705404D01*
X165837848Y-80411600D01*
X166487349Y-80411600D01*
X166487349Y-80785000D01*
X166493141Y-80843810D01*
X166510296Y-80900360D01*
X166538153Y-80952477D01*
X166575642Y-80998158D01*
X166621323Y-81035647D01*
X166673440Y-81063504D01*
X166729990Y-81080659D01*
X166788800Y-81086451D01*
X168338800Y-81086451D01*
X168397610Y-81080659D01*
X168454160Y-81063504D01*
X168506277Y-81035647D01*
X168551958Y-80998158D01*
X168589447Y-80952477D01*
X168617304Y-80900360D01*
X168634459Y-80843810D01*
X168640251Y-80785000D01*
X168640251Y-79235000D01*
X168634459Y-79176190D01*
X168617304Y-79119640D01*
X168589447Y-79067523D01*
X168551958Y-79021842D01*
X168506277Y-78984353D01*
X168454160Y-78956496D01*
X168397610Y-78939341D01*
X168338800Y-78933549D01*
X167965400Y-78933549D01*
X167965400Y-77946917D01*
X167967342Y-77927199D01*
X167965400Y-77907481D01*
X167965400Y-77907473D01*
X167959589Y-77848473D01*
X167936625Y-77772771D01*
X167899334Y-77703004D01*
X167859000Y-77653857D01*
X167859000Y-77563305D01*
X167835942Y-77447386D01*
X167790713Y-77338193D01*
X167725050Y-77239922D01*
X167641478Y-77156350D01*
X167543207Y-77090687D01*
X167434014Y-77045458D01*
X167318095Y-77022400D01*
X167199905Y-77022400D01*
X167083986Y-77045458D01*
X166974793Y-77090687D01*
X166876522Y-77156350D01*
X166792950Y-77239922D01*
X166727287Y-77338193D01*
X166682058Y-77447386D01*
X166659000Y-77563305D01*
X166659000Y-77681495D01*
X166682058Y-77797414D01*
X166727287Y-77906607D01*
X166792950Y-78004878D01*
X166876522Y-78088450D01*
X166974793Y-78154113D01*
X167083986Y-78199342D01*
X167162200Y-78214900D01*
X167162200Y-78933549D01*
X166788800Y-78933549D01*
X166729990Y-78939341D01*
X166673440Y-78956496D01*
X166621323Y-78984353D01*
X166575642Y-79021842D01*
X166538153Y-79067523D01*
X166510296Y-79119640D01*
X166493141Y-79176190D01*
X166487349Y-79235000D01*
X166487349Y-79608400D01*
X165691225Y-79608400D01*
X165671500Y-79606457D01*
X165651775Y-79608400D01*
X165651773Y-79608400D01*
X165592773Y-79614211D01*
X165517071Y-79637175D01*
X165447304Y-79674466D01*
X165386152Y-79724652D01*
X165373576Y-79739976D01*
X162823382Y-82290171D01*
X162808052Y-82302752D01*
X162757866Y-82363905D01*
X162722864Y-82429390D01*
X162706728Y-82427801D01*
X162706726Y-82427801D01*
X162687001Y-82425858D01*
X162667276Y-82427801D01*
X158998327Y-82427801D01*
X158978599Y-82425858D01*
X158899871Y-82433612D01*
X158824169Y-82456576D01*
X158786878Y-82476509D01*
X158754403Y-82493867D01*
X158693251Y-82544053D01*
X158680675Y-82559377D01*
X157289451Y-83950601D01*
X157289451Y-82554200D01*
X157283659Y-82495390D01*
X157266504Y-82438840D01*
X157238647Y-82386723D01*
X157201158Y-82341042D01*
X157155477Y-82303553D01*
X157103360Y-82275696D01*
X157046810Y-82258541D01*
X156988000Y-82252749D01*
X156611600Y-82252749D01*
X156611600Y-80416916D01*
X157458000Y-80416916D01*
X157458000Y-80771484D01*
X157527173Y-81119241D01*
X157662861Y-81446820D01*
X157859849Y-81741633D01*
X158110567Y-81992351D01*
X158405380Y-82189339D01*
X158732959Y-82325027D01*
X159080716Y-82394200D01*
X159435284Y-82394200D01*
X159783041Y-82325027D01*
X160110620Y-82189339D01*
X160405433Y-81992351D01*
X160656151Y-81741633D01*
X160853139Y-81446820D01*
X160988827Y-81119241D01*
X161058000Y-80771484D01*
X161058000Y-80755260D01*
X161889251Y-80755260D01*
X161970006Y-80912353D01*
X162157456Y-81010858D01*
X162360521Y-81070901D01*
X162571399Y-81090173D01*
X162781984Y-81067936D01*
X162984185Y-81005042D01*
X163157594Y-80912353D01*
X163238349Y-80755260D01*
X162563800Y-80080711D01*
X161889251Y-80755260D01*
X161058000Y-80755260D01*
X161058000Y-80416916D01*
X160988827Y-80069159D01*
X160967471Y-80017599D01*
X161483627Y-80017599D01*
X161505864Y-80228184D01*
X161568758Y-80430385D01*
X161661447Y-80603794D01*
X161818540Y-80684549D01*
X162493089Y-80010000D01*
X162634511Y-80010000D01*
X163309060Y-80684549D01*
X163466153Y-80603794D01*
X163564658Y-80416344D01*
X163624701Y-80213279D01*
X163643973Y-80002401D01*
X163621736Y-79791816D01*
X163558842Y-79589615D01*
X163466153Y-79416206D01*
X163309060Y-79335451D01*
X162634511Y-80010000D01*
X162493089Y-80010000D01*
X161818540Y-79335451D01*
X161661447Y-79416206D01*
X161562942Y-79603656D01*
X161502899Y-79806721D01*
X161483627Y-80017599D01*
X160967471Y-80017599D01*
X160853139Y-79741580D01*
X160656151Y-79446767D01*
X160474124Y-79264740D01*
X161889251Y-79264740D01*
X162563800Y-79939289D01*
X163238349Y-79264740D01*
X163157594Y-79107647D01*
X162970144Y-79009142D01*
X162767079Y-78949099D01*
X162556201Y-78929827D01*
X162345616Y-78952064D01*
X162143415Y-79014958D01*
X161970006Y-79107647D01*
X161889251Y-79264740D01*
X160474124Y-79264740D01*
X160405433Y-79196049D01*
X160110620Y-78999061D01*
X159783041Y-78863373D01*
X159435284Y-78794200D01*
X159080716Y-78794200D01*
X158732959Y-78863373D01*
X158405380Y-78999061D01*
X158110567Y-79196049D01*
X157859849Y-79446767D01*
X157662861Y-79741580D01*
X157527173Y-80069159D01*
X157458000Y-80416916D01*
X156611600Y-80416916D01*
X156611600Y-79439747D01*
X159313707Y-76737641D01*
X166998913Y-76737641D01*
X167063363Y-76802091D01*
X167161634Y-76867754D01*
X167270827Y-76912983D01*
X167386746Y-76936041D01*
X167504936Y-76936041D01*
X167620855Y-76912983D01*
X167730048Y-76867754D01*
X167828319Y-76802091D01*
X167911891Y-76718519D01*
X167977554Y-76620248D01*
X168022783Y-76511055D01*
X168045841Y-76395136D01*
X168045841Y-76276946D01*
X168022783Y-76161027D01*
X167977554Y-76051834D01*
X167911891Y-75953563D01*
X167828319Y-75869991D01*
X167730048Y-75804328D01*
X167620855Y-75759099D01*
X167504936Y-75736041D01*
X167386746Y-75736041D01*
X167270827Y-75759099D01*
X167161634Y-75804328D01*
X167063363Y-75869991D01*
X166998913Y-75934441D01*
X165615224Y-75934441D01*
X165749072Y-75845007D01*
X165898807Y-75695272D01*
X166016452Y-75519203D01*
X166097488Y-75323566D01*
X166138800Y-75115878D01*
X166138800Y-74904122D01*
X166097488Y-74696434D01*
X166016452Y-74500797D01*
X165898807Y-74324728D01*
X165749072Y-74174993D01*
X165573003Y-74057348D01*
X165377366Y-73976312D01*
X165169678Y-73935000D01*
X164957922Y-73935000D01*
X164750234Y-73976312D01*
X164554597Y-74057348D01*
X164378528Y-74174993D01*
X164228793Y-74324728D01*
X164111148Y-74500797D01*
X164030112Y-74696434D01*
X163988800Y-74904122D01*
X163988800Y-75115878D01*
X164030112Y-75323566D01*
X164111148Y-75519203D01*
X164228793Y-75695272D01*
X164378528Y-75845007D01*
X164512376Y-75934441D01*
X159167084Y-75934441D01*
X159147359Y-75932498D01*
X159127634Y-75934441D01*
X159127632Y-75934441D01*
X159068632Y-75940252D01*
X158992930Y-75963216D01*
X158923163Y-76000507D01*
X158862011Y-76050693D01*
X158849435Y-76066017D01*
X155939982Y-78975471D01*
X155924652Y-78988052D01*
X155874466Y-79049205D01*
X155837175Y-79118972D01*
X155814211Y-79194674D01*
X155808400Y-79253673D01*
X155806457Y-79273400D01*
X155808400Y-79293125D01*
X155808401Y-82252749D01*
X155388000Y-82252749D01*
X155329190Y-82258541D01*
X155272640Y-82275696D01*
X155220523Y-82303553D01*
X155174842Y-82341042D01*
X155137353Y-82386723D01*
X155109496Y-82438840D01*
X155092341Y-82495390D01*
X155086549Y-82554200D01*
X155086549Y-83622177D01*
X154477527Y-84231200D01*
X154280593Y-84231200D01*
X154389209Y-84158625D01*
X154542425Y-84005409D01*
X154662807Y-83825245D01*
X154745727Y-83625058D01*
X154788000Y-83412541D01*
X154788000Y-83195859D01*
X154745727Y-82983342D01*
X154662807Y-82783155D01*
X154542425Y-82602991D01*
X154389209Y-82449775D01*
X154209045Y-82329393D01*
X154008858Y-82246473D01*
X153796341Y-82204200D01*
X153579659Y-82204200D01*
X153367142Y-82246473D01*
X153166955Y-82329393D01*
X152986791Y-82449775D01*
X152833575Y-82602991D01*
X152713193Y-82783155D01*
X152688000Y-82843976D01*
X152662807Y-82783155D01*
X152542425Y-82602991D01*
X152389209Y-82449775D01*
X152209045Y-82329393D01*
X152008858Y-82246473D01*
X151796341Y-82204200D01*
X151579659Y-82204200D01*
X151367142Y-82246473D01*
X151166955Y-82329393D01*
X150986791Y-82449775D01*
X150833575Y-82602991D01*
X150713193Y-82783155D01*
X150630273Y-82983342D01*
X150588000Y-83195859D01*
X150588000Y-83412541D01*
X150630273Y-83625058D01*
X150713193Y-83825245D01*
X150833575Y-84005409D01*
X150986791Y-84158625D01*
X151166955Y-84279007D01*
X151367142Y-84361927D01*
X151579659Y-84404200D01*
X151796341Y-84404200D01*
X152008858Y-84361927D01*
X152209045Y-84279007D01*
X152389209Y-84158625D01*
X152542425Y-84005409D01*
X152662807Y-83825245D01*
X152688000Y-83764424D01*
X152713193Y-83825245D01*
X152833575Y-84005409D01*
X152986791Y-84158625D01*
X153095407Y-84231200D01*
X152605001Y-84231200D01*
X152577799Y-84228521D01*
X152550597Y-84231200D01*
X152550588Y-84231200D01*
X152469197Y-84239216D01*
X152364768Y-84270895D01*
X152268525Y-84322337D01*
X152184168Y-84391568D01*
X152166821Y-84412705D01*
X150361309Y-86218218D01*
X150340167Y-86235569D01*
X150270936Y-86319926D01*
X150219494Y-86416170D01*
X150206558Y-86458814D01*
X150189436Y-86515257D01*
X150187815Y-86520599D01*
X150179799Y-86601990D01*
X150179799Y-86601997D01*
X150177120Y-86629201D01*
X150179799Y-86656405D01*
X150179799Y-86978926D01*
X150104813Y-87053912D01*
X150104802Y-87053921D01*
X149084618Y-88074107D01*
X148967517Y-88097400D01*
X148840125Y-88150167D01*
X148725475Y-88226773D01*
X148627973Y-88324275D01*
X148551367Y-88438925D01*
X148498600Y-88566317D01*
X148475307Y-88683418D01*
X147991210Y-89167515D01*
X147970068Y-89184866D01*
X147900837Y-89269223D01*
X147849395Y-89365467D01*
X147817716Y-89469896D01*
X147814292Y-89504658D01*
X147688700Y-89505700D01*
X147613700Y-89580700D01*
X147613700Y-90335700D01*
X147633700Y-90335700D01*
X147633700Y-90435700D01*
X147613700Y-90435700D01*
X147613700Y-90455700D01*
X147513700Y-90455700D01*
X147513700Y-90435700D01*
X147493700Y-90435700D01*
X147493700Y-90335700D01*
X147513700Y-90335700D01*
X147513700Y-89580700D01*
X147438700Y-89505700D01*
X147263700Y-89504248D01*
X147204890Y-89510040D01*
X147148339Y-89527195D01*
X147096222Y-89555052D01*
X147050541Y-89592541D01*
X147013052Y-89638222D01*
X146985195Y-89690339D01*
X146968040Y-89746890D01*
X146962248Y-89805700D01*
X146962470Y-89875365D01*
X146938674Y-89850015D01*
X146818804Y-89764320D01*
X146684519Y-89703657D01*
X146610149Y-89684404D01*
X146493700Y-89742554D01*
X146493700Y-90915700D01*
X146513700Y-90915700D01*
X146513700Y-91015700D01*
X146493700Y-91015700D01*
X146493700Y-92188846D01*
X146610149Y-92246996D01*
X146684519Y-92227743D01*
X146818804Y-92167080D01*
X146938674Y-92081385D01*
X147039523Y-91973951D01*
X147117475Y-91848906D01*
X147169534Y-91711057D01*
X147193700Y-91565700D01*
X147193700Y-91257965D01*
X147204890Y-91261360D01*
X147263700Y-91267152D01*
X147298341Y-91266865D01*
X147296758Y-91270686D01*
X147273700Y-91386605D01*
X147273700Y-91504795D01*
X147296758Y-91620714D01*
X147341987Y-91729907D01*
X147407650Y-91828178D01*
X147491222Y-91911750D01*
X147589493Y-91977413D01*
X147698686Y-92022642D01*
X147814605Y-92045700D01*
X147932795Y-92045700D01*
X148048714Y-92022642D01*
X148157907Y-91977413D01*
X148256178Y-91911750D01*
X148339750Y-91828178D01*
X148405413Y-91729907D01*
X148450642Y-91620714D01*
X148473700Y-91504795D01*
X148473700Y-91386605D01*
X148450642Y-91270686D01*
X148449178Y-91267151D01*
X148663700Y-91267151D01*
X148722510Y-91261359D01*
X148763700Y-91248864D01*
X148804890Y-91261359D01*
X148863700Y-91267151D01*
X148958124Y-91267151D01*
X148927458Y-91341186D01*
X148904400Y-91457105D01*
X148904400Y-91575295D01*
X148927458Y-91691214D01*
X148972687Y-91800407D01*
X149038350Y-91898678D01*
X149121922Y-91982250D01*
X149220193Y-92047913D01*
X149329386Y-92093142D01*
X149445305Y-92116200D01*
X149563495Y-92116200D01*
X149679414Y-92093142D01*
X149788607Y-92047913D01*
X149886878Y-91982250D01*
X149970450Y-91898678D01*
X150036113Y-91800407D01*
X150081342Y-91691214D01*
X150104400Y-91575295D01*
X150104400Y-91457105D01*
X150081342Y-91341186D01*
X150050676Y-91267151D01*
X150163700Y-91267151D01*
X150222510Y-91261359D01*
X150263700Y-91248864D01*
X150304890Y-91261359D01*
X150363700Y-91267151D01*
X150663700Y-91267151D01*
X150722510Y-91261359D01*
X150763700Y-91248864D01*
X150804890Y-91261359D01*
X150863700Y-91267151D01*
X151163700Y-91267151D01*
X151222510Y-91261359D01*
X151263700Y-91248864D01*
X151304890Y-91261359D01*
X151363700Y-91267151D01*
X151663700Y-91267151D01*
X151722510Y-91261359D01*
X151763700Y-91248864D01*
X151804890Y-91261359D01*
X151863700Y-91267151D01*
X151970203Y-91267151D01*
X151950058Y-91315786D01*
X151927000Y-91431705D01*
X151927000Y-91549895D01*
X151950058Y-91665814D01*
X151995287Y-91775007D01*
X152060950Y-91873278D01*
X152144522Y-91956850D01*
X152242793Y-92022513D01*
X152351986Y-92067742D01*
X152467905Y-92090800D01*
X152586095Y-92090800D01*
X152702014Y-92067742D01*
X152811207Y-92022513D01*
X152909478Y-91956850D01*
X152993050Y-91873278D01*
X153058713Y-91775007D01*
X153099690Y-91676078D01*
X153121987Y-91729907D01*
X153187650Y-91828178D01*
X153271222Y-91911750D01*
X153369493Y-91977413D01*
X153478686Y-92022642D01*
X153594605Y-92045700D01*
X153712795Y-92045700D01*
X153828714Y-92022642D01*
X153937907Y-91977413D01*
X154036178Y-91911750D01*
X154119750Y-91828178D01*
X154185413Y-91729907D01*
X154230642Y-91620714D01*
X154253700Y-91504795D01*
X154253700Y-91386605D01*
X154230642Y-91270686D01*
X154229059Y-91266865D01*
X154263700Y-91267152D01*
X154322510Y-91261360D01*
X154333700Y-91257965D01*
X154333700Y-91565700D01*
X154357866Y-91711057D01*
X154409925Y-91848906D01*
X154487877Y-91973951D01*
X154588726Y-92081385D01*
X154708596Y-92167080D01*
X154842881Y-92227743D01*
X154917251Y-92246996D01*
X155033700Y-92188846D01*
X155033700Y-91015700D01*
X155133700Y-91015700D01*
X155133700Y-92188846D01*
X155250149Y-92246996D01*
X155324519Y-92227743D01*
X155458804Y-92167080D01*
X155578674Y-92081385D01*
X155679523Y-91973951D01*
X155757475Y-91848906D01*
X155809534Y-91711057D01*
X155833700Y-91565700D01*
X155833700Y-91015700D01*
X155133700Y-91015700D01*
X155033700Y-91015700D01*
X155013700Y-91015700D01*
X155013700Y-90915700D01*
X155033700Y-90915700D01*
X155033700Y-89742554D01*
X155133700Y-89742554D01*
X155133700Y-90915700D01*
X155833700Y-90915700D01*
X155833700Y-90365700D01*
X155809534Y-90220343D01*
X155757475Y-90082494D01*
X155679523Y-89957449D01*
X155578674Y-89850015D01*
X155458804Y-89764320D01*
X155324519Y-89703657D01*
X155250149Y-89684404D01*
X155133700Y-89742554D01*
X155033700Y-89742554D01*
X154917251Y-89684404D01*
X154842881Y-89703657D01*
X154708596Y-89764320D01*
X154588726Y-89850015D01*
X154564930Y-89875365D01*
X154565152Y-89805700D01*
X154559360Y-89746890D01*
X154542205Y-89690339D01*
X154514348Y-89638222D01*
X154476859Y-89592541D01*
X154431178Y-89555052D01*
X154379061Y-89527195D01*
X154322510Y-89510040D01*
X154263700Y-89504248D01*
X154088700Y-89505700D01*
X154013700Y-89580700D01*
X154013700Y-90335700D01*
X154033700Y-90335700D01*
X154033700Y-90435700D01*
X154013700Y-90435700D01*
X154013700Y-90455700D01*
X153913700Y-90455700D01*
X153913700Y-90435700D01*
X153893700Y-90435700D01*
X153893700Y-90335700D01*
X153913700Y-90335700D01*
X153913700Y-89580700D01*
X153838700Y-89505700D01*
X153702061Y-89504566D01*
X153683565Y-89443598D01*
X153678005Y-89425268D01*
X153626563Y-89329025D01*
X153557332Y-89244668D01*
X153536195Y-89227321D01*
X151287799Y-86978926D01*
X151287799Y-86858674D01*
X152807274Y-85339200D01*
X154679796Y-85339200D01*
X154707000Y-85341879D01*
X154734204Y-85339200D01*
X154734212Y-85339200D01*
X154815603Y-85331184D01*
X154920032Y-85299505D01*
X155016275Y-85248063D01*
X155100632Y-85178832D01*
X155117983Y-85157690D01*
X155920023Y-84355651D01*
X156884401Y-84355651D01*
X154545053Y-86695000D01*
X153998134Y-86695000D01*
X153973113Y-86634593D01*
X153907450Y-86536322D01*
X153823878Y-86452750D01*
X153725607Y-86387087D01*
X153616414Y-86341858D01*
X153500495Y-86318800D01*
X153382305Y-86318800D01*
X153266386Y-86341858D01*
X153157193Y-86387087D01*
X153058922Y-86452750D01*
X152975350Y-86536322D01*
X152909687Y-86634593D01*
X152864458Y-86743786D01*
X152841400Y-86859705D01*
X152841400Y-86977895D01*
X152864458Y-87093814D01*
X152909687Y-87203007D01*
X152975350Y-87301278D01*
X153058922Y-87384850D01*
X153157193Y-87450513D01*
X153266386Y-87495742D01*
X153382305Y-87518800D01*
X153500495Y-87518800D01*
X153602542Y-87498501D01*
X153619199Y-87500142D01*
X153638917Y-87498200D01*
X154545053Y-87498200D01*
X155967277Y-88920425D01*
X155951193Y-88927087D01*
X155852922Y-88992750D01*
X155769350Y-89076322D01*
X155703687Y-89174593D01*
X155658458Y-89283786D01*
X155635400Y-89399705D01*
X155635400Y-89517895D01*
X155658458Y-89633814D01*
X155703687Y-89743007D01*
X155769350Y-89841278D01*
X155852922Y-89924850D01*
X155951193Y-89990513D01*
X156060386Y-90035742D01*
X156176305Y-90058800D01*
X156267453Y-90058800D01*
X157356049Y-91147396D01*
X157278981Y-91198891D01*
X157195409Y-91282463D01*
X157129746Y-91380734D01*
X157084517Y-91489927D01*
X157061459Y-91605846D01*
X157061459Y-91724036D01*
X157084517Y-91839955D01*
X157129746Y-91949148D01*
X157195409Y-92047419D01*
X157278981Y-92130991D01*
X157377252Y-92196654D01*
X157486445Y-92241883D01*
X157602364Y-92264941D01*
X157693512Y-92264941D01*
X159169659Y-93741090D01*
X159169659Y-93832236D01*
X159192717Y-93948155D01*
X159237946Y-94057348D01*
X159303609Y-94155619D01*
X159387181Y-94239191D01*
X159485452Y-94304854D01*
X159594645Y-94350083D01*
X159710564Y-94373141D01*
X159828754Y-94373141D01*
X159944673Y-94350083D01*
X160053866Y-94304854D01*
X160152137Y-94239191D01*
X160197601Y-94193727D01*
X160205058Y-94231214D01*
X160250287Y-94340407D01*
X160315950Y-94438678D01*
X160399522Y-94522250D01*
X160497793Y-94587913D01*
X160606986Y-94633142D01*
X160722905Y-94656200D01*
X160841095Y-94656200D01*
X160957014Y-94633142D01*
X161066207Y-94587913D01*
X161164478Y-94522250D01*
X161248050Y-94438678D01*
X161313713Y-94340407D01*
X161358942Y-94231214D01*
X161382000Y-94115295D01*
X161382000Y-93997105D01*
X161358942Y-93881186D01*
X161313713Y-93771993D01*
X161248050Y-93673722D01*
X161164478Y-93590150D01*
X161066207Y-93524487D01*
X160957014Y-93479258D01*
X160841095Y-93456200D01*
X160800748Y-93456200D01*
X158500347Y-91155800D01*
X161478072Y-91155800D01*
X161523400Y-91201128D01*
X161523401Y-93807865D01*
X161521457Y-93827600D01*
X161529212Y-93906327D01*
X161552176Y-93982029D01*
X161589467Y-94051796D01*
X161639653Y-94112948D01*
X161654977Y-94125524D01*
X162569600Y-95040148D01*
X162569600Y-95131295D01*
X162592658Y-95247214D01*
X162637887Y-95356407D01*
X162703550Y-95454678D01*
X162787122Y-95538250D01*
X162885393Y-95603913D01*
X162994586Y-95649142D01*
X163110505Y-95672200D01*
X163201653Y-95672200D01*
X164268676Y-96739224D01*
X164281252Y-96754548D01*
X164342404Y-96804734D01*
X164412171Y-96842025D01*
X164487873Y-96864989D01*
X164546873Y-96870800D01*
X164546881Y-96870800D01*
X164566599Y-96872742D01*
X164586317Y-96870800D01*
X166913672Y-96870800D01*
X166949072Y-96906200D01*
X144165200Y-96906200D01*
X144165200Y-95185700D01*
X145693700Y-95185700D01*
X145693700Y-95585700D01*
X145717866Y-95731057D01*
X145769925Y-95868906D01*
X145847877Y-95993951D01*
X145948726Y-96101385D01*
X146068596Y-96187080D01*
X146202881Y-96247743D01*
X146277251Y-96266996D01*
X146393700Y-96208846D01*
X146393700Y-95185700D01*
X146493700Y-95185700D01*
X146493700Y-96208846D01*
X146610149Y-96266996D01*
X146684519Y-96247743D01*
X146818804Y-96187080D01*
X146938674Y-96101385D01*
X147039523Y-95993951D01*
X147117475Y-95868906D01*
X147169534Y-95731057D01*
X147193700Y-95585700D01*
X147193700Y-95185700D01*
X154333700Y-95185700D01*
X154333700Y-95585700D01*
X154357866Y-95731057D01*
X154409925Y-95868906D01*
X154487877Y-95993951D01*
X154588726Y-96101385D01*
X154708596Y-96187080D01*
X154842881Y-96247743D01*
X154917251Y-96266996D01*
X155033700Y-96208846D01*
X155033700Y-95185700D01*
X155133700Y-95185700D01*
X155133700Y-96208846D01*
X155250149Y-96266996D01*
X155324519Y-96247743D01*
X155458804Y-96187080D01*
X155578674Y-96101385D01*
X155679523Y-95993951D01*
X155757475Y-95868906D01*
X155809534Y-95731057D01*
X155833700Y-95585700D01*
X155833700Y-95185700D01*
X155133700Y-95185700D01*
X155033700Y-95185700D01*
X154333700Y-95185700D01*
X147193700Y-95185700D01*
X146493700Y-95185700D01*
X146393700Y-95185700D01*
X145693700Y-95185700D01*
X144165200Y-95185700D01*
X144165200Y-94685700D01*
X145693700Y-94685700D01*
X145693700Y-95085700D01*
X146393700Y-95085700D01*
X146393700Y-94062554D01*
X146493700Y-94062554D01*
X146493700Y-95085700D01*
X147193700Y-95085700D01*
X147193700Y-94685700D01*
X154333700Y-94685700D01*
X154333700Y-95085700D01*
X155033700Y-95085700D01*
X155033700Y-94062554D01*
X155133700Y-94062554D01*
X155133700Y-95085700D01*
X155833700Y-95085700D01*
X155833700Y-94685700D01*
X155809534Y-94540343D01*
X155757475Y-94402494D01*
X155679523Y-94277449D01*
X155578674Y-94170015D01*
X155458804Y-94084320D01*
X155324519Y-94023657D01*
X155250149Y-94004404D01*
X155133700Y-94062554D01*
X155033700Y-94062554D01*
X154917251Y-94004404D01*
X154842881Y-94023657D01*
X154708596Y-94084320D01*
X154588726Y-94170015D01*
X154487877Y-94277449D01*
X154409925Y-94402494D01*
X154357866Y-94540343D01*
X154333700Y-94685700D01*
X147193700Y-94685700D01*
X147169534Y-94540343D01*
X147117475Y-94402494D01*
X147039523Y-94277449D01*
X146938674Y-94170015D01*
X146818804Y-94084320D01*
X146684519Y-94023657D01*
X146610149Y-94004404D01*
X146493700Y-94062554D01*
X146393700Y-94062554D01*
X146277251Y-94004404D01*
X146202881Y-94023657D01*
X146068596Y-94084320D01*
X145948726Y-94170015D01*
X145847877Y-94277449D01*
X145769925Y-94402494D01*
X145717866Y-94540343D01*
X145693700Y-94685700D01*
X144165200Y-94685700D01*
X144165200Y-91015700D01*
X145693700Y-91015700D01*
X145693700Y-91565700D01*
X145717866Y-91711057D01*
X145769925Y-91848906D01*
X145847877Y-91973951D01*
X145948726Y-92081385D01*
X146068596Y-92167080D01*
X146202881Y-92227743D01*
X146277251Y-92246996D01*
X146393700Y-92188846D01*
X146393700Y-91015700D01*
X145693700Y-91015700D01*
X144165200Y-91015700D01*
X144165200Y-90365700D01*
X145693700Y-90365700D01*
X145693700Y-90915700D01*
X146393700Y-90915700D01*
X146393700Y-89742554D01*
X146277251Y-89684404D01*
X146202881Y-89703657D01*
X146068596Y-89764320D01*
X145948726Y-89850015D01*
X145847877Y-89957449D01*
X145769925Y-90082494D01*
X145717866Y-90220343D01*
X145693700Y-90365700D01*
X144165200Y-90365700D01*
X144165200Y-83195859D01*
X148088000Y-83195859D01*
X148088000Y-83412541D01*
X148130273Y-83625058D01*
X148213193Y-83825245D01*
X148333575Y-84005409D01*
X148486791Y-84158625D01*
X148666955Y-84279007D01*
X148867142Y-84361927D01*
X149079659Y-84404200D01*
X149296341Y-84404200D01*
X149508858Y-84361927D01*
X149709045Y-84279007D01*
X149889209Y-84158625D01*
X150042425Y-84005409D01*
X150162807Y-83825245D01*
X150245727Y-83625058D01*
X150288000Y-83412541D01*
X150288000Y-83195859D01*
X150245727Y-82983342D01*
X150162807Y-82783155D01*
X150042425Y-82602991D01*
X149889209Y-82449775D01*
X149709045Y-82329393D01*
X149508858Y-82246473D01*
X149296341Y-82204200D01*
X149079659Y-82204200D01*
X148867142Y-82246473D01*
X148666955Y-82329393D01*
X148486791Y-82449775D01*
X148333575Y-82602991D01*
X148213193Y-82783155D01*
X148130273Y-82983342D01*
X148088000Y-83195859D01*
X144165200Y-83195859D01*
X144165200Y-80416916D01*
X144318000Y-80416916D01*
X144318000Y-80771484D01*
X144387173Y-81119241D01*
X144522861Y-81446820D01*
X144719849Y-81741633D01*
X144970567Y-81992351D01*
X145265380Y-82189339D01*
X145592959Y-82325027D01*
X145940716Y-82394200D01*
X146295284Y-82394200D01*
X146643041Y-82325027D01*
X146970620Y-82189339D01*
X147265433Y-81992351D01*
X147516151Y-81741633D01*
X147713139Y-81446820D01*
X147848827Y-81119241D01*
X147918000Y-80771484D01*
X147918000Y-80416916D01*
X147848827Y-80069159D01*
X147713139Y-79741580D01*
X147516151Y-79446767D01*
X147265433Y-79196049D01*
X146970620Y-78999061D01*
X146643041Y-78863373D01*
X146295284Y-78794200D01*
X145940716Y-78794200D01*
X145592959Y-78863373D01*
X145265380Y-78999061D01*
X144970567Y-79196049D01*
X144719849Y-79446767D01*
X144522861Y-79741580D01*
X144387173Y-80069159D01*
X144318000Y-80416916D01*
X144165200Y-80416916D01*
X144165200Y-73502400D01*
X169702600Y-73502400D01*
X169702601Y-96906200D01*
%TA.AperFunction,Conductor*%
D27*
G36*
X169702601Y-96906200D02*
G01*
X167772128Y-96906200D01*
X167826650Y-96851678D01*
X167892313Y-96753407D01*
X167937542Y-96644214D01*
X167960600Y-96528295D01*
X167960600Y-96410105D01*
X167937542Y-96294186D01*
X167892313Y-96184993D01*
X167826650Y-96086722D01*
X167743078Y-96003150D01*
X167644807Y-95937487D01*
X167535614Y-95892258D01*
X167419695Y-95869200D01*
X167301505Y-95869200D01*
X167185586Y-95892258D01*
X167076393Y-95937487D01*
X166978122Y-96003150D01*
X166913672Y-96067600D01*
X164732948Y-96067600D01*
X163769600Y-95104253D01*
X163769600Y-95013105D01*
X163746542Y-94897186D01*
X163701313Y-94787993D01*
X163635650Y-94689722D01*
X163552078Y-94606150D01*
X163453807Y-94540487D01*
X163344614Y-94495258D01*
X163228695Y-94472200D01*
X163137548Y-94472200D01*
X162326600Y-93661253D01*
X162326600Y-91201128D01*
X162391050Y-91136678D01*
X162456713Y-91038407D01*
X162501942Y-90929214D01*
X162525000Y-90813295D01*
X162525000Y-90695105D01*
X162501942Y-90579186D01*
X162456713Y-90469993D01*
X162391050Y-90371722D01*
X162307478Y-90288150D01*
X162209207Y-90222487D01*
X162106276Y-90179852D01*
X162192400Y-90180052D01*
X162251210Y-90174260D01*
X162307761Y-90157105D01*
X162359878Y-90129248D01*
X162405559Y-90091759D01*
X162443048Y-90046078D01*
X162470905Y-89993961D01*
X162488060Y-89937410D01*
X162493852Y-89878600D01*
X162492400Y-89253600D01*
X162417400Y-89178600D01*
X161492400Y-89178600D01*
X161492400Y-90103600D01*
X161567400Y-90178600D01*
X161745746Y-90179014D01*
X161640793Y-90222487D01*
X161542522Y-90288150D01*
X161478072Y-90352600D01*
X158535348Y-90352600D01*
X158061348Y-89878600D01*
X160390948Y-89878600D01*
X160396740Y-89937410D01*
X160413895Y-89993961D01*
X160441752Y-90046078D01*
X160479241Y-90091759D01*
X160524922Y-90129248D01*
X160577039Y-90157105D01*
X160633590Y-90174260D01*
X160692400Y-90180052D01*
X161317400Y-90178600D01*
X161392400Y-90103600D01*
X161392400Y-89178600D01*
X160467400Y-89178600D01*
X160392400Y-89253600D01*
X160390948Y-89878600D01*
X158061348Y-89878600D01*
X156561348Y-88378600D01*
X160390948Y-88378600D01*
X160392400Y-89003600D01*
X160467400Y-89078600D01*
X161392400Y-89078600D01*
X161392400Y-88153600D01*
X161492400Y-88153600D01*
X161492400Y-89078600D01*
X162417400Y-89078600D01*
X162470816Y-89025184D01*
X162932400Y-89025184D01*
X162932400Y-89232016D01*
X162972750Y-89434874D01*
X163051902Y-89625962D01*
X163166811Y-89797936D01*
X163313064Y-89944189D01*
X163485038Y-90059098D01*
X163580801Y-90098765D01*
X163580801Y-90480465D01*
X163578857Y-90500200D01*
X163586612Y-90578927D01*
X163609576Y-90654629D01*
X163646867Y-90724396D01*
X163697053Y-90785548D01*
X163712377Y-90798124D01*
X167649600Y-94735349D01*
X167649600Y-94826495D01*
X167672658Y-94942414D01*
X167717887Y-95051607D01*
X167783550Y-95149878D01*
X167867122Y-95233450D01*
X167965393Y-95299113D01*
X168074586Y-95344342D01*
X168190505Y-95367400D01*
X168308695Y-95367400D01*
X168424614Y-95344342D01*
X168533807Y-95299113D01*
X168632078Y-95233450D01*
X168715650Y-95149878D01*
X168781313Y-95051607D01*
X168826542Y-94942414D01*
X168849600Y-94826495D01*
X168849600Y-94708305D01*
X168826542Y-94592386D01*
X168781313Y-94483193D01*
X168715650Y-94384922D01*
X168632078Y-94301350D01*
X168533807Y-94235687D01*
X168424614Y-94190458D01*
X168308695Y-94167400D01*
X168217549Y-94167400D01*
X164384000Y-90333853D01*
X164384000Y-90098764D01*
X164479762Y-90059098D01*
X164651736Y-89944189D01*
X164797989Y-89797936D01*
X164912898Y-89625962D01*
X164992050Y-89434874D01*
X165032400Y-89232016D01*
X165032400Y-89025184D01*
X164992050Y-88822326D01*
X164912898Y-88631238D01*
X164797989Y-88459264D01*
X164651736Y-88313011D01*
X164479762Y-88198102D01*
X164288674Y-88118950D01*
X164085816Y-88078600D01*
X163878984Y-88078600D01*
X163676126Y-88118950D01*
X163485038Y-88198102D01*
X163313064Y-88313011D01*
X163166811Y-88459264D01*
X163051902Y-88631238D01*
X162972750Y-88822326D01*
X162932400Y-89025184D01*
X162470816Y-89025184D01*
X162492400Y-89003600D01*
X162493852Y-88378600D01*
X162488060Y-88319790D01*
X162470905Y-88263239D01*
X162443048Y-88211122D01*
X162405559Y-88165441D01*
X162359878Y-88127952D01*
X162307761Y-88100095D01*
X162251210Y-88082940D01*
X162192400Y-88077148D01*
X161567400Y-88078600D01*
X161492400Y-88153600D01*
X161392400Y-88153600D01*
X161317400Y-88078600D01*
X160692400Y-88077148D01*
X160633590Y-88082940D01*
X160577039Y-88100095D01*
X160524922Y-88127952D01*
X160479241Y-88165441D01*
X160441752Y-88211122D01*
X160413895Y-88263239D01*
X160396740Y-88319790D01*
X160390948Y-88378600D01*
X156561348Y-88378600D01*
X155279347Y-87096600D01*
X159144947Y-83231001D01*
X159412682Y-83231001D01*
X159394600Y-83321906D01*
X159394600Y-83440096D01*
X159417658Y-83556015D01*
X159462887Y-83665208D01*
X159528550Y-83763479D01*
X159593000Y-83827929D01*
X159593000Y-84054275D01*
X159591057Y-84074000D01*
X159593000Y-84093725D01*
X159593000Y-84093726D01*
X159598811Y-84152726D01*
X159621775Y-84228428D01*
X159659066Y-84298195D01*
X159709252Y-84359348D01*
X159724582Y-84371929D01*
X160509475Y-85156823D01*
X160522051Y-85172147D01*
X160583203Y-85222333D01*
X160652970Y-85259624D01*
X160728672Y-85282588D01*
X160787672Y-85288399D01*
X160787680Y-85288399D01*
X160807398Y-85290341D01*
X160827116Y-85288399D01*
X162692676Y-85288399D01*
X162712401Y-85290342D01*
X162732126Y-85288399D01*
X162732128Y-85288399D01*
X162791128Y-85282588D01*
X162866830Y-85259624D01*
X162936597Y-85222333D01*
X162976253Y-85189789D01*
X163025076Y-85199500D01*
X163161724Y-85199500D01*
X163295745Y-85172842D01*
X163421990Y-85120549D01*
X163535608Y-85044632D01*
X163632232Y-84948008D01*
X163708149Y-84834390D01*
X163728400Y-84785500D01*
X163748651Y-84834390D01*
X163824568Y-84948008D01*
X163921192Y-85044632D01*
X164034810Y-85120549D01*
X164161055Y-85172842D01*
X164295076Y-85199500D01*
X164431724Y-85199500D01*
X164479625Y-85189972D01*
X165336227Y-86046575D01*
X165310458Y-86108786D01*
X165287400Y-86224705D01*
X165287400Y-86342895D01*
X165310458Y-86458814D01*
X165355687Y-86568007D01*
X165421350Y-86666278D01*
X165504922Y-86749850D01*
X165603193Y-86815513D01*
X165712386Y-86860742D01*
X165828305Y-86883800D01*
X165946495Y-86883800D01*
X166062414Y-86860742D01*
X166171607Y-86815513D01*
X166269878Y-86749850D01*
X166353450Y-86666278D01*
X166419113Y-86568007D01*
X166464342Y-86458814D01*
X166487400Y-86342895D01*
X166487400Y-86224705D01*
X166464342Y-86108786D01*
X166419113Y-85999593D01*
X166353450Y-85901322D01*
X166269878Y-85817750D01*
X166188006Y-85763045D01*
X166185322Y-85759774D01*
X166172748Y-85744452D01*
X166157425Y-85731877D01*
X165625048Y-85199500D01*
X165701724Y-85199500D01*
X165835745Y-85172842D01*
X165961990Y-85120549D01*
X166075608Y-85044632D01*
X166115899Y-85004341D01*
X166138663Y-85118780D01*
X166198614Y-85263516D01*
X166285650Y-85393774D01*
X166396426Y-85504550D01*
X166526684Y-85591586D01*
X166671420Y-85651537D01*
X166825070Y-85682100D01*
X166981730Y-85682100D01*
X167135380Y-85651537D01*
X167280116Y-85591586D01*
X167410374Y-85504550D01*
X167521150Y-85393774D01*
X167608186Y-85263516D01*
X167668137Y-85118780D01*
X167698700Y-84965130D01*
X167698700Y-84808470D01*
X167668137Y-84654820D01*
X167608186Y-84510084D01*
X167598909Y-84496200D01*
X167622895Y-84496200D01*
X167738814Y-84473142D01*
X167848007Y-84427913D01*
X167946278Y-84362250D01*
X168029850Y-84278678D01*
X168095513Y-84180407D01*
X168140742Y-84071214D01*
X168163800Y-83955295D01*
X168163800Y-83837105D01*
X168140742Y-83721186D01*
X168095513Y-83611993D01*
X168029850Y-83513722D01*
X167946278Y-83430150D01*
X167848007Y-83364487D01*
X167738814Y-83319258D01*
X167622895Y-83296200D01*
X167564965Y-83296200D01*
X167608186Y-83231516D01*
X167668137Y-83086780D01*
X167698700Y-82933130D01*
X167698700Y-82776470D01*
X167668137Y-82622820D01*
X167608186Y-82478084D01*
X167521150Y-82347826D01*
X167410374Y-82237050D01*
X167280116Y-82150014D01*
X167135380Y-82090063D01*
X166981730Y-82059500D01*
X166825070Y-82059500D01*
X166671420Y-82090063D01*
X166526684Y-82150014D01*
X166396426Y-82237050D01*
X166285650Y-82347826D01*
X166198614Y-82478084D01*
X166138663Y-82622820D01*
X166116574Y-82733871D01*
X166090595Y-82707892D01*
X166036482Y-82762005D01*
X166001613Y-82643933D01*
X165879071Y-82583471D01*
X165747087Y-82548076D01*
X165610734Y-82539112D01*
X165475253Y-82556920D01*
X165345849Y-82600818D01*
X165265187Y-82643933D01*
X165230318Y-82762007D01*
X165633400Y-83165089D01*
X165647542Y-83150947D01*
X165718253Y-83221658D01*
X165704111Y-83235800D01*
X165718253Y-83249942D01*
X165647542Y-83320653D01*
X165633400Y-83306511D01*
X165619258Y-83320653D01*
X165548547Y-83249942D01*
X165562689Y-83235800D01*
X165159607Y-82832718D01*
X165041533Y-82867587D01*
X164998154Y-82955506D01*
X164978149Y-82907210D01*
X164902232Y-82793592D01*
X164805608Y-82696968D01*
X164691990Y-82621051D01*
X164565745Y-82568758D01*
X164431724Y-82542100D01*
X164295076Y-82542100D01*
X164161055Y-82568758D01*
X164034810Y-82621051D01*
X163921192Y-82696968D01*
X163824568Y-82793592D01*
X163748651Y-82907210D01*
X163728400Y-82956100D01*
X163708149Y-82907210D01*
X163632232Y-82793592D01*
X163544044Y-82705404D01*
X165837848Y-80411600D01*
X166487349Y-80411600D01*
X166487349Y-80785000D01*
X166493141Y-80843810D01*
X166510296Y-80900360D01*
X166538153Y-80952477D01*
X166575642Y-80998158D01*
X166621323Y-81035647D01*
X166673440Y-81063504D01*
X166729990Y-81080659D01*
X166788800Y-81086451D01*
X168338800Y-81086451D01*
X168397610Y-81080659D01*
X168454160Y-81063504D01*
X168506277Y-81035647D01*
X168551958Y-80998158D01*
X168589447Y-80952477D01*
X168617304Y-80900360D01*
X168634459Y-80843810D01*
X168640251Y-80785000D01*
X168640251Y-79235000D01*
X168634459Y-79176190D01*
X168617304Y-79119640D01*
X168589447Y-79067523D01*
X168551958Y-79021842D01*
X168506277Y-78984353D01*
X168454160Y-78956496D01*
X168397610Y-78939341D01*
X168338800Y-78933549D01*
X167965400Y-78933549D01*
X167965400Y-77946917D01*
X167967342Y-77927199D01*
X167965400Y-77907481D01*
X167965400Y-77907473D01*
X167959589Y-77848473D01*
X167936625Y-77772771D01*
X167899334Y-77703004D01*
X167859000Y-77653857D01*
X167859000Y-77563305D01*
X167835942Y-77447386D01*
X167790713Y-77338193D01*
X167725050Y-77239922D01*
X167641478Y-77156350D01*
X167543207Y-77090687D01*
X167434014Y-77045458D01*
X167318095Y-77022400D01*
X167199905Y-77022400D01*
X167083986Y-77045458D01*
X166974793Y-77090687D01*
X166876522Y-77156350D01*
X166792950Y-77239922D01*
X166727287Y-77338193D01*
X166682058Y-77447386D01*
X166659000Y-77563305D01*
X166659000Y-77681495D01*
X166682058Y-77797414D01*
X166727287Y-77906607D01*
X166792950Y-78004878D01*
X166876522Y-78088450D01*
X166974793Y-78154113D01*
X167083986Y-78199342D01*
X167162200Y-78214900D01*
X167162200Y-78933549D01*
X166788800Y-78933549D01*
X166729990Y-78939341D01*
X166673440Y-78956496D01*
X166621323Y-78984353D01*
X166575642Y-79021842D01*
X166538153Y-79067523D01*
X166510296Y-79119640D01*
X166493141Y-79176190D01*
X166487349Y-79235000D01*
X166487349Y-79608400D01*
X165691225Y-79608400D01*
X165671500Y-79606457D01*
X165651775Y-79608400D01*
X165651773Y-79608400D01*
X165592773Y-79614211D01*
X165517071Y-79637175D01*
X165447304Y-79674466D01*
X165386152Y-79724652D01*
X165373576Y-79739976D01*
X162823382Y-82290171D01*
X162808052Y-82302752D01*
X162757866Y-82363905D01*
X162722864Y-82429390D01*
X162706728Y-82427801D01*
X162706726Y-82427801D01*
X162687001Y-82425858D01*
X162667276Y-82427801D01*
X158998327Y-82427801D01*
X158978599Y-82425858D01*
X158899871Y-82433612D01*
X158824169Y-82456576D01*
X158786878Y-82476509D01*
X158754403Y-82493867D01*
X158693251Y-82544053D01*
X158680675Y-82559377D01*
X157289451Y-83950601D01*
X157289451Y-82554200D01*
X157283659Y-82495390D01*
X157266504Y-82438840D01*
X157238647Y-82386723D01*
X157201158Y-82341042D01*
X157155477Y-82303553D01*
X157103360Y-82275696D01*
X157046810Y-82258541D01*
X156988000Y-82252749D01*
X156611600Y-82252749D01*
X156611600Y-80416916D01*
X157458000Y-80416916D01*
X157458000Y-80771484D01*
X157527173Y-81119241D01*
X157662861Y-81446820D01*
X157859849Y-81741633D01*
X158110567Y-81992351D01*
X158405380Y-82189339D01*
X158732959Y-82325027D01*
X159080716Y-82394200D01*
X159435284Y-82394200D01*
X159783041Y-82325027D01*
X160110620Y-82189339D01*
X160405433Y-81992351D01*
X160656151Y-81741633D01*
X160853139Y-81446820D01*
X160988827Y-81119241D01*
X161058000Y-80771484D01*
X161058000Y-80755260D01*
X161889251Y-80755260D01*
X161970006Y-80912353D01*
X162157456Y-81010858D01*
X162360521Y-81070901D01*
X162571399Y-81090173D01*
X162781984Y-81067936D01*
X162984185Y-81005042D01*
X163157594Y-80912353D01*
X163238349Y-80755260D01*
X162563800Y-80080711D01*
X161889251Y-80755260D01*
X161058000Y-80755260D01*
X161058000Y-80416916D01*
X160988827Y-80069159D01*
X160967471Y-80017599D01*
X161483627Y-80017599D01*
X161505864Y-80228184D01*
X161568758Y-80430385D01*
X161661447Y-80603794D01*
X161818540Y-80684549D01*
X162493089Y-80010000D01*
X162634511Y-80010000D01*
X163309060Y-80684549D01*
X163466153Y-80603794D01*
X163564658Y-80416344D01*
X163624701Y-80213279D01*
X163643973Y-80002401D01*
X163621736Y-79791816D01*
X163558842Y-79589615D01*
X163466153Y-79416206D01*
X163309060Y-79335451D01*
X162634511Y-80010000D01*
X162493089Y-80010000D01*
X161818540Y-79335451D01*
X161661447Y-79416206D01*
X161562942Y-79603656D01*
X161502899Y-79806721D01*
X161483627Y-80017599D01*
X160967471Y-80017599D01*
X160853139Y-79741580D01*
X160656151Y-79446767D01*
X160474124Y-79264740D01*
X161889251Y-79264740D01*
X162563800Y-79939289D01*
X163238349Y-79264740D01*
X163157594Y-79107647D01*
X162970144Y-79009142D01*
X162767079Y-78949099D01*
X162556201Y-78929827D01*
X162345616Y-78952064D01*
X162143415Y-79014958D01*
X161970006Y-79107647D01*
X161889251Y-79264740D01*
X160474124Y-79264740D01*
X160405433Y-79196049D01*
X160110620Y-78999061D01*
X159783041Y-78863373D01*
X159435284Y-78794200D01*
X159080716Y-78794200D01*
X158732959Y-78863373D01*
X158405380Y-78999061D01*
X158110567Y-79196049D01*
X157859849Y-79446767D01*
X157662861Y-79741580D01*
X157527173Y-80069159D01*
X157458000Y-80416916D01*
X156611600Y-80416916D01*
X156611600Y-79439747D01*
X159313707Y-76737641D01*
X166998913Y-76737641D01*
X167063363Y-76802091D01*
X167161634Y-76867754D01*
X167270827Y-76912983D01*
X167386746Y-76936041D01*
X167504936Y-76936041D01*
X167620855Y-76912983D01*
X167730048Y-76867754D01*
X167828319Y-76802091D01*
X167911891Y-76718519D01*
X167977554Y-76620248D01*
X168022783Y-76511055D01*
X168045841Y-76395136D01*
X168045841Y-76276946D01*
X168022783Y-76161027D01*
X167977554Y-76051834D01*
X167911891Y-75953563D01*
X167828319Y-75869991D01*
X167730048Y-75804328D01*
X167620855Y-75759099D01*
X167504936Y-75736041D01*
X167386746Y-75736041D01*
X167270827Y-75759099D01*
X167161634Y-75804328D01*
X167063363Y-75869991D01*
X166998913Y-75934441D01*
X165615224Y-75934441D01*
X165749072Y-75845007D01*
X165898807Y-75695272D01*
X166016452Y-75519203D01*
X166097488Y-75323566D01*
X166138800Y-75115878D01*
X166138800Y-74904122D01*
X166097488Y-74696434D01*
X166016452Y-74500797D01*
X165898807Y-74324728D01*
X165749072Y-74174993D01*
X165573003Y-74057348D01*
X165377366Y-73976312D01*
X165169678Y-73935000D01*
X164957922Y-73935000D01*
X164750234Y-73976312D01*
X164554597Y-74057348D01*
X164378528Y-74174993D01*
X164228793Y-74324728D01*
X164111148Y-74500797D01*
X164030112Y-74696434D01*
X163988800Y-74904122D01*
X163988800Y-75115878D01*
X164030112Y-75323566D01*
X164111148Y-75519203D01*
X164228793Y-75695272D01*
X164378528Y-75845007D01*
X164512376Y-75934441D01*
X159167084Y-75934441D01*
X159147359Y-75932498D01*
X159127634Y-75934441D01*
X159127632Y-75934441D01*
X159068632Y-75940252D01*
X158992930Y-75963216D01*
X158923163Y-76000507D01*
X158862011Y-76050693D01*
X158849435Y-76066017D01*
X155939982Y-78975471D01*
X155924652Y-78988052D01*
X155874466Y-79049205D01*
X155837175Y-79118972D01*
X155814211Y-79194674D01*
X155808400Y-79253673D01*
X155806457Y-79273400D01*
X155808400Y-79293125D01*
X155808401Y-82252749D01*
X155388000Y-82252749D01*
X155329190Y-82258541D01*
X155272640Y-82275696D01*
X155220523Y-82303553D01*
X155174842Y-82341042D01*
X155137353Y-82386723D01*
X155109496Y-82438840D01*
X155092341Y-82495390D01*
X155086549Y-82554200D01*
X155086549Y-83622177D01*
X154477527Y-84231200D01*
X154280593Y-84231200D01*
X154389209Y-84158625D01*
X154542425Y-84005409D01*
X154662807Y-83825245D01*
X154745727Y-83625058D01*
X154788000Y-83412541D01*
X154788000Y-83195859D01*
X154745727Y-82983342D01*
X154662807Y-82783155D01*
X154542425Y-82602991D01*
X154389209Y-82449775D01*
X154209045Y-82329393D01*
X154008858Y-82246473D01*
X153796341Y-82204200D01*
X153579659Y-82204200D01*
X153367142Y-82246473D01*
X153166955Y-82329393D01*
X152986791Y-82449775D01*
X152833575Y-82602991D01*
X152713193Y-82783155D01*
X152688000Y-82843976D01*
X152662807Y-82783155D01*
X152542425Y-82602991D01*
X152389209Y-82449775D01*
X152209045Y-82329393D01*
X152008858Y-82246473D01*
X151796341Y-82204200D01*
X151579659Y-82204200D01*
X151367142Y-82246473D01*
X151166955Y-82329393D01*
X150986791Y-82449775D01*
X150833575Y-82602991D01*
X150713193Y-82783155D01*
X150630273Y-82983342D01*
X150588000Y-83195859D01*
X150588000Y-83412541D01*
X150630273Y-83625058D01*
X150713193Y-83825245D01*
X150833575Y-84005409D01*
X150986791Y-84158625D01*
X151166955Y-84279007D01*
X151367142Y-84361927D01*
X151579659Y-84404200D01*
X151796341Y-84404200D01*
X152008858Y-84361927D01*
X152209045Y-84279007D01*
X152389209Y-84158625D01*
X152542425Y-84005409D01*
X152662807Y-83825245D01*
X152688000Y-83764424D01*
X152713193Y-83825245D01*
X152833575Y-84005409D01*
X152986791Y-84158625D01*
X153095407Y-84231200D01*
X152605001Y-84231200D01*
X152577799Y-84228521D01*
X152550597Y-84231200D01*
X152550588Y-84231200D01*
X152469197Y-84239216D01*
X152364768Y-84270895D01*
X152268525Y-84322337D01*
X152184168Y-84391568D01*
X152166821Y-84412705D01*
X150361309Y-86218218D01*
X150340167Y-86235569D01*
X150270936Y-86319926D01*
X150219494Y-86416170D01*
X150206558Y-86458814D01*
X150189436Y-86515257D01*
X150187815Y-86520599D01*
X150179799Y-86601990D01*
X150179799Y-86601997D01*
X150177120Y-86629201D01*
X150179799Y-86656405D01*
X150179799Y-86978926D01*
X150104813Y-87053912D01*
X150104802Y-87053921D01*
X149084618Y-88074107D01*
X148967517Y-88097400D01*
X148840125Y-88150167D01*
X148725475Y-88226773D01*
X148627973Y-88324275D01*
X148551367Y-88438925D01*
X148498600Y-88566317D01*
X148475307Y-88683418D01*
X147991210Y-89167515D01*
X147970068Y-89184866D01*
X147900837Y-89269223D01*
X147849395Y-89365467D01*
X147817716Y-89469896D01*
X147814292Y-89504658D01*
X147688700Y-89505700D01*
X147613700Y-89580700D01*
X147613700Y-90335700D01*
X147633700Y-90335700D01*
X147633700Y-90435700D01*
X147613700Y-90435700D01*
X147613700Y-90455700D01*
X147513700Y-90455700D01*
X147513700Y-90435700D01*
X147493700Y-90435700D01*
X147493700Y-90335700D01*
X147513700Y-90335700D01*
X147513700Y-89580700D01*
X147438700Y-89505700D01*
X147263700Y-89504248D01*
X147204890Y-89510040D01*
X147148339Y-89527195D01*
X147096222Y-89555052D01*
X147050541Y-89592541D01*
X147013052Y-89638222D01*
X146985195Y-89690339D01*
X146968040Y-89746890D01*
X146962248Y-89805700D01*
X146962470Y-89875365D01*
X146938674Y-89850015D01*
X146818804Y-89764320D01*
X146684519Y-89703657D01*
X146610149Y-89684404D01*
X146493700Y-89742554D01*
X146493700Y-90915700D01*
X146513700Y-90915700D01*
X146513700Y-91015700D01*
X146493700Y-91015700D01*
X146493700Y-92188846D01*
X146610149Y-92246996D01*
X146684519Y-92227743D01*
X146818804Y-92167080D01*
X146938674Y-92081385D01*
X147039523Y-91973951D01*
X147117475Y-91848906D01*
X147169534Y-91711057D01*
X147193700Y-91565700D01*
X147193700Y-91257965D01*
X147204890Y-91261360D01*
X147263700Y-91267152D01*
X147298341Y-91266865D01*
X147296758Y-91270686D01*
X147273700Y-91386605D01*
X147273700Y-91504795D01*
X147296758Y-91620714D01*
X147341987Y-91729907D01*
X147407650Y-91828178D01*
X147491222Y-91911750D01*
X147589493Y-91977413D01*
X147698686Y-92022642D01*
X147814605Y-92045700D01*
X147932795Y-92045700D01*
X148048714Y-92022642D01*
X148157907Y-91977413D01*
X148256178Y-91911750D01*
X148339750Y-91828178D01*
X148405413Y-91729907D01*
X148450642Y-91620714D01*
X148473700Y-91504795D01*
X148473700Y-91386605D01*
X148450642Y-91270686D01*
X148449178Y-91267151D01*
X148663700Y-91267151D01*
X148722510Y-91261359D01*
X148763700Y-91248864D01*
X148804890Y-91261359D01*
X148863700Y-91267151D01*
X148958124Y-91267151D01*
X148927458Y-91341186D01*
X148904400Y-91457105D01*
X148904400Y-91575295D01*
X148927458Y-91691214D01*
X148972687Y-91800407D01*
X149038350Y-91898678D01*
X149121922Y-91982250D01*
X149220193Y-92047913D01*
X149329386Y-92093142D01*
X149445305Y-92116200D01*
X149563495Y-92116200D01*
X149679414Y-92093142D01*
X149788607Y-92047913D01*
X149886878Y-91982250D01*
X149970450Y-91898678D01*
X150036113Y-91800407D01*
X150081342Y-91691214D01*
X150104400Y-91575295D01*
X150104400Y-91457105D01*
X150081342Y-91341186D01*
X150050676Y-91267151D01*
X150163700Y-91267151D01*
X150222510Y-91261359D01*
X150263700Y-91248864D01*
X150304890Y-91261359D01*
X150363700Y-91267151D01*
X150663700Y-91267151D01*
X150722510Y-91261359D01*
X150763700Y-91248864D01*
X150804890Y-91261359D01*
X150863700Y-91267151D01*
X151163700Y-91267151D01*
X151222510Y-91261359D01*
X151263700Y-91248864D01*
X151304890Y-91261359D01*
X151363700Y-91267151D01*
X151663700Y-91267151D01*
X151722510Y-91261359D01*
X151763700Y-91248864D01*
X151804890Y-91261359D01*
X151863700Y-91267151D01*
X151970203Y-91267151D01*
X151950058Y-91315786D01*
X151927000Y-91431705D01*
X151927000Y-91549895D01*
X151950058Y-91665814D01*
X151995287Y-91775007D01*
X152060950Y-91873278D01*
X152144522Y-91956850D01*
X152242793Y-92022513D01*
X152351986Y-92067742D01*
X152467905Y-92090800D01*
X152586095Y-92090800D01*
X152702014Y-92067742D01*
X152811207Y-92022513D01*
X152909478Y-91956850D01*
X152993050Y-91873278D01*
X153058713Y-91775007D01*
X153099690Y-91676078D01*
X153121987Y-91729907D01*
X153187650Y-91828178D01*
X153271222Y-91911750D01*
X153369493Y-91977413D01*
X153478686Y-92022642D01*
X153594605Y-92045700D01*
X153712795Y-92045700D01*
X153828714Y-92022642D01*
X153937907Y-91977413D01*
X154036178Y-91911750D01*
X154119750Y-91828178D01*
X154185413Y-91729907D01*
X154230642Y-91620714D01*
X154253700Y-91504795D01*
X154253700Y-91386605D01*
X154230642Y-91270686D01*
X154229059Y-91266865D01*
X154263700Y-91267152D01*
X154322510Y-91261360D01*
X154333700Y-91257965D01*
X154333700Y-91565700D01*
X154357866Y-91711057D01*
X154409925Y-91848906D01*
X154487877Y-91973951D01*
X154588726Y-92081385D01*
X154708596Y-92167080D01*
X154842881Y-92227743D01*
X154917251Y-92246996D01*
X155033700Y-92188846D01*
X155033700Y-91015700D01*
X155133700Y-91015700D01*
X155133700Y-92188846D01*
X155250149Y-92246996D01*
X155324519Y-92227743D01*
X155458804Y-92167080D01*
X155578674Y-92081385D01*
X155679523Y-91973951D01*
X155757475Y-91848906D01*
X155809534Y-91711057D01*
X155833700Y-91565700D01*
X155833700Y-91015700D01*
X155133700Y-91015700D01*
X155033700Y-91015700D01*
X155013700Y-91015700D01*
X155013700Y-90915700D01*
X155033700Y-90915700D01*
X155033700Y-89742554D01*
X155133700Y-89742554D01*
X155133700Y-90915700D01*
X155833700Y-90915700D01*
X155833700Y-90365700D01*
X155809534Y-90220343D01*
X155757475Y-90082494D01*
X155679523Y-89957449D01*
X155578674Y-89850015D01*
X155458804Y-89764320D01*
X155324519Y-89703657D01*
X155250149Y-89684404D01*
X155133700Y-89742554D01*
X155033700Y-89742554D01*
X154917251Y-89684404D01*
X154842881Y-89703657D01*
X154708596Y-89764320D01*
X154588726Y-89850015D01*
X154564930Y-89875365D01*
X154565152Y-89805700D01*
X154559360Y-89746890D01*
X154542205Y-89690339D01*
X154514348Y-89638222D01*
X154476859Y-89592541D01*
X154431178Y-89555052D01*
X154379061Y-89527195D01*
X154322510Y-89510040D01*
X154263700Y-89504248D01*
X154088700Y-89505700D01*
X154013700Y-89580700D01*
X154013700Y-90335700D01*
X154033700Y-90335700D01*
X154033700Y-90435700D01*
X154013700Y-90435700D01*
X154013700Y-90455700D01*
X153913700Y-90455700D01*
X153913700Y-90435700D01*
X153893700Y-90435700D01*
X153893700Y-90335700D01*
X153913700Y-90335700D01*
X153913700Y-89580700D01*
X153838700Y-89505700D01*
X153702061Y-89504566D01*
X153683565Y-89443598D01*
X153678005Y-89425268D01*
X153626563Y-89329025D01*
X153557332Y-89244668D01*
X153536195Y-89227321D01*
X151287799Y-86978926D01*
X151287799Y-86858674D01*
X152807274Y-85339200D01*
X154679796Y-85339200D01*
X154707000Y-85341879D01*
X154734204Y-85339200D01*
X154734212Y-85339200D01*
X154815603Y-85331184D01*
X154920032Y-85299505D01*
X155016275Y-85248063D01*
X155100632Y-85178832D01*
X155117983Y-85157690D01*
X155920023Y-84355651D01*
X156884401Y-84355651D01*
X154545053Y-86695000D01*
X153998134Y-86695000D01*
X153973113Y-86634593D01*
X153907450Y-86536322D01*
X153823878Y-86452750D01*
X153725607Y-86387087D01*
X153616414Y-86341858D01*
X153500495Y-86318800D01*
X153382305Y-86318800D01*
X153266386Y-86341858D01*
X153157193Y-86387087D01*
X153058922Y-86452750D01*
X152975350Y-86536322D01*
X152909687Y-86634593D01*
X152864458Y-86743786D01*
X152841400Y-86859705D01*
X152841400Y-86977895D01*
X152864458Y-87093814D01*
X152909687Y-87203007D01*
X152975350Y-87301278D01*
X153058922Y-87384850D01*
X153157193Y-87450513D01*
X153266386Y-87495742D01*
X153382305Y-87518800D01*
X153500495Y-87518800D01*
X153602542Y-87498501D01*
X153619199Y-87500142D01*
X153638917Y-87498200D01*
X154545053Y-87498200D01*
X155967277Y-88920425D01*
X155951193Y-88927087D01*
X155852922Y-88992750D01*
X155769350Y-89076322D01*
X155703687Y-89174593D01*
X155658458Y-89283786D01*
X155635400Y-89399705D01*
X155635400Y-89517895D01*
X155658458Y-89633814D01*
X155703687Y-89743007D01*
X155769350Y-89841278D01*
X155852922Y-89924850D01*
X155951193Y-89990513D01*
X156060386Y-90035742D01*
X156176305Y-90058800D01*
X156267453Y-90058800D01*
X157356049Y-91147396D01*
X157278981Y-91198891D01*
X157195409Y-91282463D01*
X157129746Y-91380734D01*
X157084517Y-91489927D01*
X157061459Y-91605846D01*
X157061459Y-91724036D01*
X157084517Y-91839955D01*
X157129746Y-91949148D01*
X157195409Y-92047419D01*
X157278981Y-92130991D01*
X157377252Y-92196654D01*
X157486445Y-92241883D01*
X157602364Y-92264941D01*
X157693512Y-92264941D01*
X159169659Y-93741090D01*
X159169659Y-93832236D01*
X159192717Y-93948155D01*
X159237946Y-94057348D01*
X159303609Y-94155619D01*
X159387181Y-94239191D01*
X159485452Y-94304854D01*
X159594645Y-94350083D01*
X159710564Y-94373141D01*
X159828754Y-94373141D01*
X159944673Y-94350083D01*
X160053866Y-94304854D01*
X160152137Y-94239191D01*
X160197601Y-94193727D01*
X160205058Y-94231214D01*
X160250287Y-94340407D01*
X160315950Y-94438678D01*
X160399522Y-94522250D01*
X160497793Y-94587913D01*
X160606986Y-94633142D01*
X160722905Y-94656200D01*
X160841095Y-94656200D01*
X160957014Y-94633142D01*
X161066207Y-94587913D01*
X161164478Y-94522250D01*
X161248050Y-94438678D01*
X161313713Y-94340407D01*
X161358942Y-94231214D01*
X161382000Y-94115295D01*
X161382000Y-93997105D01*
X161358942Y-93881186D01*
X161313713Y-93771993D01*
X161248050Y-93673722D01*
X161164478Y-93590150D01*
X161066207Y-93524487D01*
X160957014Y-93479258D01*
X160841095Y-93456200D01*
X160800748Y-93456200D01*
X158500347Y-91155800D01*
X161478072Y-91155800D01*
X161523400Y-91201128D01*
X161523401Y-93807865D01*
X161521457Y-93827600D01*
X161529212Y-93906327D01*
X161552176Y-93982029D01*
X161589467Y-94051796D01*
X161639653Y-94112948D01*
X161654977Y-94125524D01*
X162569600Y-95040148D01*
X162569600Y-95131295D01*
X162592658Y-95247214D01*
X162637887Y-95356407D01*
X162703550Y-95454678D01*
X162787122Y-95538250D01*
X162885393Y-95603913D01*
X162994586Y-95649142D01*
X163110505Y-95672200D01*
X163201653Y-95672200D01*
X164268676Y-96739224D01*
X164281252Y-96754548D01*
X164342404Y-96804734D01*
X164412171Y-96842025D01*
X164487873Y-96864989D01*
X164546873Y-96870800D01*
X164546881Y-96870800D01*
X164566599Y-96872742D01*
X164586317Y-96870800D01*
X166913672Y-96870800D01*
X166949072Y-96906200D01*
X144165200Y-96906200D01*
X144165200Y-95185700D01*
X145693700Y-95185700D01*
X145693700Y-95585700D01*
X145717866Y-95731057D01*
X145769925Y-95868906D01*
X145847877Y-95993951D01*
X145948726Y-96101385D01*
X146068596Y-96187080D01*
X146202881Y-96247743D01*
X146277251Y-96266996D01*
X146393700Y-96208846D01*
X146393700Y-95185700D01*
X146493700Y-95185700D01*
X146493700Y-96208846D01*
X146610149Y-96266996D01*
X146684519Y-96247743D01*
X146818804Y-96187080D01*
X146938674Y-96101385D01*
X147039523Y-95993951D01*
X147117475Y-95868906D01*
X147169534Y-95731057D01*
X147193700Y-95585700D01*
X147193700Y-95185700D01*
X154333700Y-95185700D01*
X154333700Y-95585700D01*
X154357866Y-95731057D01*
X154409925Y-95868906D01*
X154487877Y-95993951D01*
X154588726Y-96101385D01*
X154708596Y-96187080D01*
X154842881Y-96247743D01*
X154917251Y-96266996D01*
X155033700Y-96208846D01*
X155033700Y-95185700D01*
X155133700Y-95185700D01*
X155133700Y-96208846D01*
X155250149Y-96266996D01*
X155324519Y-96247743D01*
X155458804Y-96187080D01*
X155578674Y-96101385D01*
X155679523Y-95993951D01*
X155757475Y-95868906D01*
X155809534Y-95731057D01*
X155833700Y-95585700D01*
X155833700Y-95185700D01*
X155133700Y-95185700D01*
X155033700Y-95185700D01*
X154333700Y-95185700D01*
X147193700Y-95185700D01*
X146493700Y-95185700D01*
X146393700Y-95185700D01*
X145693700Y-95185700D01*
X144165200Y-95185700D01*
X144165200Y-94685700D01*
X145693700Y-94685700D01*
X145693700Y-95085700D01*
X146393700Y-95085700D01*
X146393700Y-94062554D01*
X146493700Y-94062554D01*
X146493700Y-95085700D01*
X147193700Y-95085700D01*
X147193700Y-94685700D01*
X154333700Y-94685700D01*
X154333700Y-95085700D01*
X155033700Y-95085700D01*
X155033700Y-94062554D01*
X155133700Y-94062554D01*
X155133700Y-95085700D01*
X155833700Y-95085700D01*
X155833700Y-94685700D01*
X155809534Y-94540343D01*
X155757475Y-94402494D01*
X155679523Y-94277449D01*
X155578674Y-94170015D01*
X155458804Y-94084320D01*
X155324519Y-94023657D01*
X155250149Y-94004404D01*
X155133700Y-94062554D01*
X155033700Y-94062554D01*
X154917251Y-94004404D01*
X154842881Y-94023657D01*
X154708596Y-94084320D01*
X154588726Y-94170015D01*
X154487877Y-94277449D01*
X154409925Y-94402494D01*
X154357866Y-94540343D01*
X154333700Y-94685700D01*
X147193700Y-94685700D01*
X147169534Y-94540343D01*
X147117475Y-94402494D01*
X147039523Y-94277449D01*
X146938674Y-94170015D01*
X146818804Y-94084320D01*
X146684519Y-94023657D01*
X146610149Y-94004404D01*
X146493700Y-94062554D01*
X146393700Y-94062554D01*
X146277251Y-94004404D01*
X146202881Y-94023657D01*
X146068596Y-94084320D01*
X145948726Y-94170015D01*
X145847877Y-94277449D01*
X145769925Y-94402494D01*
X145717866Y-94540343D01*
X145693700Y-94685700D01*
X144165200Y-94685700D01*
X144165200Y-91015700D01*
X145693700Y-91015700D01*
X145693700Y-91565700D01*
X145717866Y-91711057D01*
X145769925Y-91848906D01*
X145847877Y-91973951D01*
X145948726Y-92081385D01*
X146068596Y-92167080D01*
X146202881Y-92227743D01*
X146277251Y-92246996D01*
X146393700Y-92188846D01*
X146393700Y-91015700D01*
X145693700Y-91015700D01*
X144165200Y-91015700D01*
X144165200Y-90365700D01*
X145693700Y-90365700D01*
X145693700Y-90915700D01*
X146393700Y-90915700D01*
X146393700Y-89742554D01*
X146277251Y-89684404D01*
X146202881Y-89703657D01*
X146068596Y-89764320D01*
X145948726Y-89850015D01*
X145847877Y-89957449D01*
X145769925Y-90082494D01*
X145717866Y-90220343D01*
X145693700Y-90365700D01*
X144165200Y-90365700D01*
X144165200Y-83195859D01*
X148088000Y-83195859D01*
X148088000Y-83412541D01*
X148130273Y-83625058D01*
X148213193Y-83825245D01*
X148333575Y-84005409D01*
X148486791Y-84158625D01*
X148666955Y-84279007D01*
X148867142Y-84361927D01*
X149079659Y-84404200D01*
X149296341Y-84404200D01*
X149508858Y-84361927D01*
X149709045Y-84279007D01*
X149889209Y-84158625D01*
X150042425Y-84005409D01*
X150162807Y-83825245D01*
X150245727Y-83625058D01*
X150288000Y-83412541D01*
X150288000Y-83195859D01*
X150245727Y-82983342D01*
X150162807Y-82783155D01*
X150042425Y-82602991D01*
X149889209Y-82449775D01*
X149709045Y-82329393D01*
X149508858Y-82246473D01*
X149296341Y-82204200D01*
X149079659Y-82204200D01*
X148867142Y-82246473D01*
X148666955Y-82329393D01*
X148486791Y-82449775D01*
X148333575Y-82602991D01*
X148213193Y-82783155D01*
X148130273Y-82983342D01*
X148088000Y-83195859D01*
X144165200Y-83195859D01*
X144165200Y-80416916D01*
X144318000Y-80416916D01*
X144318000Y-80771484D01*
X144387173Y-81119241D01*
X144522861Y-81446820D01*
X144719849Y-81741633D01*
X144970567Y-81992351D01*
X145265380Y-82189339D01*
X145592959Y-82325027D01*
X145940716Y-82394200D01*
X146295284Y-82394200D01*
X146643041Y-82325027D01*
X146970620Y-82189339D01*
X147265433Y-81992351D01*
X147516151Y-81741633D01*
X147713139Y-81446820D01*
X147848827Y-81119241D01*
X147918000Y-80771484D01*
X147918000Y-80416916D01*
X147848827Y-80069159D01*
X147713139Y-79741580D01*
X147516151Y-79446767D01*
X147265433Y-79196049D01*
X146970620Y-78999061D01*
X146643041Y-78863373D01*
X146295284Y-78794200D01*
X145940716Y-78794200D01*
X145592959Y-78863373D01*
X145265380Y-78999061D01*
X144970567Y-79196049D01*
X144719849Y-79446767D01*
X144522861Y-79741580D01*
X144387173Y-80069159D01*
X144318000Y-80416916D01*
X144165200Y-80416916D01*
X144165200Y-73502400D01*
X169702600Y-73502400D01*
X169702601Y-96906200D01*
G37*
%TD.AperFunction*%
%TD*%
M02*
