M48
; DRILL file {KiCad (5.1.8-0-10_14)} date Sunday, January 24, 2021 at 11:32:46 PM
; FORMAT={-:-/ absolute / inch / decimal}
; #@! TF.CreationDate,2021-01-24T23:32:46+01:00
; #@! TF.GenerationSoftware,Kicad,Pcbnew,(5.1.8-0-10_14)
FMAT,2
INCH
T1C0.0118
T2C0.0157
T3C0.0236
T4C0.0315
T5C0.0374
T6C0.0394
T7C0.0906
T8C0.0236
T9C0.0390
%
G90
G05
T1
X5.886Y-3.603
X6.005Y-3.602
X6.041Y-3.422
X6.151Y-3.522
X6.2071Y-3.6089
X6.2901Y-3.6919
X6.299Y-3.2827
X6.33Y-3.703
X6.375Y-3.573
X6.424Y-3.743
X6.494Y-3.304
X6.531Y-3.397
X6.585Y-3.056
X6.589Y-3.798
X6.5924Y-3.0054
X6.597Y-3.303
X6.624Y-3.731
T2
X5.809Y-3.364
X5.8729Y-3.4949
X6.009Y-3.39
X6.01Y-3.18
X6.08Y-3.11
X6.2Y-3.22
X6.223Y-3.393
X6.25Y-3.07
X6.376Y-3.74
X6.405Y-3.042
X6.438Y-3.706
T4
X6.356Y-3.509
X6.456Y-3.509
T5
X5.8735Y-3.2797
X5.972Y-3.2797
X6.0507Y-3.2797
X6.1491Y-3.2797
T6
X6.4001Y-3.15
X6.4986Y-2.9531
X6.597Y-3.15
T7
X5.7527Y-3.173
X6.27Y-3.173
T8
X5.8218Y-3.6002
X6.0494Y-3.6002
T9
X6.371Y-3.302
X6.571Y-3.262
X6.571Y-3.342
T3
G00X5.7655Y-3.603
M15
G01X5.7655Y-3.5597
M16
G05
G00X5.7655Y-3.7612
M15
G01X5.7655Y-3.7298
M16
G05
G00X6.1057Y-3.603
M15
G01X6.1057Y-3.5597
M16
G05
G00X6.1057Y-3.7612
M15
G01X6.1057Y-3.7298
M16
G05
T0
M30
