%TF.GenerationSoftware,KiCad,Pcbnew,(5.1.8-0-10_14)*%
%TF.CreationDate,2021-01-24T23:40:28+01:00*%
%TF.ProjectId,clapruptor,636c6170-7275-4707-946f-722e6b696361,rev?*%
%TF.SameCoordinates,Original*%
%TF.FileFunction,Legend,Top*%
%TF.FilePolarity,Positive*%
%FSLAX46Y46*%
G04 Gerber Fmt 4.6, Leading zero omitted, Abs format (unit mm)*
G04 Created by KiCad (PCBNEW (5.1.8-0-10_14)) date 2021-01-24 23:40:28*
%MOMM*%
%LPD*%
G01*
G04 APERTURE LIST*
%ADD10C,0.200000*%
%ADD11C,0.100000*%
%ADD12C,0.150000*%
G04 APERTURE END LIST*
D10*
X144831571Y-88090314D02*
X144717285Y-88147457D01*
X144488714Y-88147457D01*
X144374428Y-88090314D01*
X144317285Y-88033171D01*
X144260142Y-87918885D01*
X144260142Y-87576028D01*
X144317285Y-87461742D01*
X144374428Y-87404600D01*
X144488714Y-87347457D01*
X144717285Y-87347457D01*
X144831571Y-87404600D01*
X145517285Y-88147457D02*
X145403000Y-88090314D01*
X145345857Y-87976028D01*
X145345857Y-86947457D01*
X146488714Y-88147457D02*
X146488714Y-87518885D01*
X146431571Y-87404600D01*
X146317285Y-87347457D01*
X146088714Y-87347457D01*
X145974428Y-87404600D01*
X146488714Y-88090314D02*
X146374428Y-88147457D01*
X146088714Y-88147457D01*
X145974428Y-88090314D01*
X145917285Y-87976028D01*
X145917285Y-87861742D01*
X145974428Y-87747457D01*
X146088714Y-87690314D01*
X146374428Y-87690314D01*
X146488714Y-87633171D01*
X147060142Y-87347457D02*
X147060142Y-88547457D01*
X147060142Y-87404600D02*
X147174428Y-87347457D01*
X147403000Y-87347457D01*
X147517285Y-87404600D01*
X147574428Y-87461742D01*
X147631571Y-87576028D01*
X147631571Y-87918885D01*
X147574428Y-88033171D01*
X147517285Y-88090314D01*
X147403000Y-88147457D01*
X147174428Y-88147457D01*
X147060142Y-88090314D01*
X148145857Y-88147457D02*
X148145857Y-87347457D01*
X148145857Y-87576028D02*
X148203000Y-87461742D01*
X148260142Y-87404600D01*
X148374428Y-87347457D01*
X148488714Y-87347457D01*
X149403000Y-87347457D02*
X149403000Y-88147457D01*
X148888714Y-87347457D02*
X148888714Y-87976028D01*
X148945857Y-88090314D01*
X149060142Y-88147457D01*
X149231571Y-88147457D01*
X149345857Y-88090314D01*
X149403000Y-88033171D01*
X149974428Y-87347457D02*
X149974428Y-88547457D01*
X149974428Y-87404600D02*
X150088714Y-87347457D01*
X150317285Y-87347457D01*
X150431571Y-87404600D01*
X150488714Y-87461742D01*
X150545857Y-87576028D01*
X150545857Y-87918885D01*
X150488714Y-88033171D01*
X150431571Y-88090314D01*
X150317285Y-88147457D01*
X150088714Y-88147457D01*
X149974428Y-88090314D01*
X150888714Y-87347457D02*
X151345857Y-87347457D01*
X151060142Y-86947457D02*
X151060142Y-87976028D01*
X151117285Y-88090314D01*
X151231571Y-88147457D01*
X151345857Y-88147457D01*
X151917285Y-88147457D02*
X151803000Y-88090314D01*
X151745857Y-88033171D01*
X151688714Y-87918885D01*
X151688714Y-87576028D01*
X151745857Y-87461742D01*
X151803000Y-87404600D01*
X151917285Y-87347457D01*
X152088714Y-87347457D01*
X152203000Y-87404600D01*
X152260142Y-87461742D01*
X152317285Y-87576028D01*
X152317285Y-87918885D01*
X152260142Y-88033171D01*
X152203000Y-88090314D01*
X152088714Y-88147457D01*
X151917285Y-88147457D01*
X152831571Y-88147457D02*
X152831571Y-87347457D01*
X152831571Y-87576028D02*
X152888714Y-87461742D01*
X152945857Y-87404600D01*
X153060142Y-87347457D01*
X153174428Y-87347457D01*
X154374428Y-87347457D02*
X154660142Y-88147457D01*
X154945857Y-87347457D01*
X155345857Y-87061742D02*
X155403000Y-87004600D01*
X155517285Y-86947457D01*
X155803000Y-86947457D01*
X155917285Y-87004600D01*
X155974428Y-87061742D01*
X156031571Y-87176028D01*
X156031571Y-87290314D01*
X155974428Y-87461742D01*
X155288714Y-88147457D01*
X156031571Y-88147457D01*
X156545857Y-88033171D02*
X156603000Y-88090314D01*
X156545857Y-88147457D01*
X156488714Y-88090314D01*
X156545857Y-88033171D01*
X156545857Y-88147457D01*
X157345857Y-86947457D02*
X157460142Y-86947457D01*
X157574428Y-87004600D01*
X157631571Y-87061742D01*
X157688714Y-87176028D01*
X157745857Y-87404600D01*
X157745857Y-87690314D01*
X157688714Y-87918885D01*
X157631571Y-88033171D01*
X157574428Y-88090314D01*
X157460142Y-88147457D01*
X157345857Y-88147457D01*
X157231571Y-88090314D01*
X157174428Y-88033171D01*
X157117285Y-87918885D01*
X157060142Y-87690314D01*
X157060142Y-87404600D01*
X157117285Y-87176028D01*
X157174428Y-87061742D01*
X157231571Y-87004600D01*
X157345857Y-86947457D01*
D11*
%TO.C,RV1*%
X168273800Y-81420000D02*
X166853800Y-81420000D01*
X166853800Y-81220000D02*
X163273800Y-81220000D01*
X163273800Y-81220000D02*
X163273800Y-81420000D01*
X163273800Y-81420000D02*
X161853800Y-81420000D01*
X161853800Y-81420000D02*
X161853800Y-81220000D01*
X165573800Y-74200000D02*
X167063800Y-74200000D01*
X168373800Y-75510000D02*
X168373800Y-79050000D01*
X161753800Y-79490000D02*
X161753800Y-75510000D01*
X163063800Y-74200000D02*
X164553800Y-74200000D01*
X166853800Y-81220000D02*
X166853800Y-81420000D01*
X168273800Y-81420000D02*
X168273800Y-81220000D01*
X168273800Y-81220000D02*
X168373800Y-81220000D01*
X168373800Y-81220000D02*
X168373800Y-80970000D01*
X161853800Y-81220000D02*
X161753800Y-81220000D01*
X161753800Y-81220000D02*
X161753800Y-80530000D01*
X167063800Y-74200000D02*
G75*
G02*
X168373800Y-75510000I0J-1310000D01*
G01*
X161753800Y-75510000D02*
G75*
G02*
X163063800Y-74200000I1310000J0D01*
G01*
%TO.C,MK1*%
X168104295Y-91345494D02*
G75*
G03*
X168104295Y-91345494I-5391895J0D01*
G01*
%TO.C,J4*%
X146293700Y-92225700D02*
X146293700Y-94025700D01*
X146293700Y-97735700D02*
X146293700Y-96275700D01*
X155233700Y-97735700D02*
X155233700Y-96275700D01*
X155233700Y-92225700D02*
X155233700Y-94025700D01*
X155233700Y-97735700D02*
X146293700Y-97735700D01*
%TO.C,J3*%
X162458400Y-85140800D02*
X162458400Y-84505800D01*
X163093400Y-85140800D02*
X162458400Y-85140800D01*
%TO.C,J2*%
X157088000Y-85904200D02*
X155288000Y-85904200D01*
X145378000Y-70724200D02*
X146028000Y-70724200D01*
X159998000Y-70724200D02*
X159998000Y-70204200D01*
X146028000Y-78834200D02*
X146028000Y-70724200D01*
X159998000Y-70204200D02*
X145378000Y-70204200D01*
X145378000Y-70204200D02*
X145378000Y-70724200D01*
X146028000Y-85684200D02*
X146028000Y-82354200D01*
X159348000Y-85684200D02*
X159348000Y-82354200D01*
X159348000Y-85684200D02*
X146028000Y-85684200D01*
X159348000Y-70724200D02*
X159998000Y-70724200D01*
X159348000Y-70724200D02*
X159348000Y-78834200D01*
%TO.C,RV1*%
D12*
X169652904Y-80562390D02*
X169271952Y-80829057D01*
X169652904Y-81019533D02*
X168852904Y-81019533D01*
X168852904Y-80714771D01*
X168891000Y-80638580D01*
X168929095Y-80600485D01*
X169005285Y-80562390D01*
X169119571Y-80562390D01*
X169195761Y-80600485D01*
X169233857Y-80638580D01*
X169271952Y-80714771D01*
X169271952Y-81019533D01*
X168852904Y-80333819D02*
X169652904Y-80067152D01*
X168852904Y-79800485D01*
X169652904Y-79114771D02*
X169652904Y-79571914D01*
X169652904Y-79343342D02*
X168852904Y-79343342D01*
X168967190Y-79419533D01*
X169043380Y-79495723D01*
X169081476Y-79571914D01*
%TO.C,MK1*%
X161664780Y-87390504D02*
X161664780Y-86590504D01*
X161931447Y-87161933D01*
X162198114Y-86590504D01*
X162198114Y-87390504D01*
X162579066Y-87390504D02*
X162579066Y-86590504D01*
X163036209Y-87390504D02*
X162693352Y-86933361D01*
X163036209Y-86590504D02*
X162579066Y-87047647D01*
X163798114Y-87390504D02*
X163340971Y-87390504D01*
X163569542Y-87390504D02*
X163569542Y-86590504D01*
X163493352Y-86704790D01*
X163417161Y-86780980D01*
X163340971Y-86819076D01*
%TO.C,J4*%
X150609333Y-92754504D02*
X150609333Y-93325933D01*
X150571238Y-93440219D01*
X150495047Y-93516409D01*
X150380761Y-93554504D01*
X150304571Y-93554504D01*
X151333142Y-93021171D02*
X151333142Y-93554504D01*
X151142666Y-92716409D02*
X150952190Y-93287838D01*
X151447428Y-93287838D01*
%TO.C,J3*%
X168338533Y-83420004D02*
X168338533Y-83991433D01*
X168300438Y-84105719D01*
X168224247Y-84181909D01*
X168109961Y-84220004D01*
X168033771Y-84220004D01*
X168643295Y-83420004D02*
X169138533Y-83420004D01*
X168871866Y-83724766D01*
X168986152Y-83724766D01*
X169062342Y-83762861D01*
X169100438Y-83800957D01*
X169138533Y-83877147D01*
X169138533Y-84067623D01*
X169100438Y-84143814D01*
X169062342Y-84181909D01*
X168986152Y-84220004D01*
X168757580Y-84220004D01*
X168681390Y-84181909D01*
X168643295Y-84143814D01*
%TO.C,J2*%
X152768333Y-78022504D02*
X152768333Y-78593933D01*
X152730238Y-78708219D01*
X152654047Y-78784409D01*
X152539761Y-78822504D01*
X152463571Y-78822504D01*
X153111190Y-78098695D02*
X153149285Y-78060600D01*
X153225476Y-78022504D01*
X153415952Y-78022504D01*
X153492142Y-78060600D01*
X153530238Y-78098695D01*
X153568333Y-78174885D01*
X153568333Y-78251076D01*
X153530238Y-78365361D01*
X153073095Y-78822504D01*
X153568333Y-78822504D01*
%TD*%
M02*
